<svg width="65" height="65" viewBox="0 0 65 65" fill="none" xmlns="http://www.w3.org/2000/svg">
<g clip-path="url(#clip0_23_92)">
<path d="M39.2604 18.3197H32.6934L23.2274 42.8867H29.1574L30.7044 38.7247H39.6484L38.0284 34.1207H32.1284L35.9584 23.5507L42.7934 42.8877H48.7234L39.2604 18.3197ZM59.5334 50.3417C59.3174 50.3418 59.1046 50.3937 58.9129 50.493C58.7211 50.5924 58.556 50.7363 58.4314 50.9127L56.6164 52.8957C53.9476 55.5713 50.7847 57.7034 47.3034 59.1737C43.7034 60.7007 39.8574 61.4737 35.9014 61.4737C31.9846 61.4818 28.1065 60.6992 24.4994 59.1727C21.0183 57.7025 17.8558 55.5704 15.1874 52.8947C12.5118 50.2256 10.3794 47.0628 8.90839 43.5817C7.37939 39.9817 6.59339 36.1367 6.59339 32.1817C6.59339 28.2267 7.36839 24.3897 8.89339 20.7797C10.3638 17.2979 12.4967 14.135 15.1734 11.4667C17.8424 8.79124 21.0047 6.65857 24.4854 5.18666C28.0926 3.6604 31.9706 2.87778 35.8874 2.88566C39.8042 2.87778 43.6822 3.6604 47.2894 5.18666C49.8294 6.26166 52.1814 7.68666 54.3124 9.40466C54.1952 9.7489 54.1355 10.11 54.1354 10.4737C54.1354 12.2997 55.6154 13.7797 57.4404 13.7797C59.2654 13.7797 60.7464 12.2997 60.7464 10.4737C60.7464 8.64766 59.2664 7.16866 57.4404 7.16866C57.0012 7.1681 56.5663 7.25548 56.1614 7.42566C50.4526 2.73373 43.2899 0.172839 35.9004 0.181663C18.2274 0.181663 3.90039 14.5087 3.90039 32.1817C3.90039 49.8547 18.2274 64.1817 35.9004 64.1817C45.7864 64.1817 54.6204 59.6957 60.5004 52.6517C60.6259 52.5263 60.7255 52.3774 60.7934 52.2136C60.8614 52.0497 60.8964 51.8741 60.8964 51.6967C60.8954 50.9467 60.2904 50.3427 59.5424 50.3427L59.5334 50.3417Z" fill="black"/>
</g>
<defs>
<clipPath id="clip0_23_92">
<rect width="64" height="64" fill="white" transform="translate(0.393555 0.181641)"/>
</clipPath>
</defs>
</svg>
