<svg width="2500" height="555" viewBox="0 0 2500 555" fill="none" xmlns="http://www.w3.org/2000/svg">
<g clip-path="url(#clip0_23_94)">
<path d="M670.545 408.306C665.884 408.317 661.372 406.662 657.823 403.64C654.274 400.618 651.921 396.428 651.188 391.824C650.455 387.221 651.39 382.507 653.825 378.533C656.26 374.558 660.034 371.583 664.468 370.145C701.681 357.964 725.726 325.343 725.726 287.042C725.726 238.528 686.259 199.061 637.752 199.061C634.379 199.061 630.753 199.326 626.339 199.896L607.206 202.375L604.462 183.275C592.711 101.378 521.366 39.6158 438.508 39.6158C370.012 39.6158 309.039 80.6204 283.172 144.086L278.307 156.022L265.423 156.261C206.199 157.348 158.024 206.391 158.024 265.582C158.024 308.794 183.109 348.194 221.933 365.963C224.269 367.032 226.372 368.551 228.122 370.433C229.871 372.315 231.233 374.523 232.129 376.931C233.025 379.339 233.438 381.9 233.344 384.468C233.251 387.036 232.652 389.56 231.583 391.897C230.514 394.233 228.995 396.336 227.113 398.085C225.231 399.835 223.023 401.196 220.614 402.092C218.206 402.989 215.645 403.401 213.077 403.308C210.51 403.214 207.986 402.615 205.649 401.546C152.954 377.422 118.895 324.057 118.895 265.582C118.895 189.491 177.522 125.754 251.989 117.927C286.3 46.1903 358.209 0.5 438.515 0.5C534.627 0.5 618.174 67.8823 639.84 159.959C708.972 161.079 764.862 217.658 764.862 287.049C764.862 341.726 729.404 390.067 676.636 407.332C674.621 407.995 672.567 408.306 670.545 408.306Z" fill="#0071CE"/>
<path d="M371.59 417.4L371.583 417.393L371.57 417.386H371.537H371.484L371.458 417.38L371.438 417.373L371.431 417.367H371.405L371.398 417.36C371.089 417.25 370.758 417.187 370.43 417.174H370.311H370.265H370.245C366.169 417.164 362.255 415.548 359.363 412.676C356.471 409.804 354.828 405.907 354.789 401.832V229.588H367.978C369.986 229.674 371.358 228.13 371.358 226.274C371.359 225.617 371.164 224.974 370.798 224.427C370.432 223.881 369.912 223.456 369.304 223.206L306.004 179.517C305.45 179.135 304.794 178.931 304.122 178.931C303.449 178.931 302.793 179.135 302.239 179.517L238.443 223.551C237.868 223.957 237.437 224.534 237.211 225.201C236.985 225.868 236.977 226.589 237.187 227.26C237.397 227.932 237.814 228.52 238.379 228.939C238.944 229.359 239.628 229.588 240.331 229.595H253.52L253.527 401.785C253.593 413.688 263.157 423.404 275.325 423.716C275.464 423.729 275.597 423.742 275.736 423.742H370.291C371.127 423.729 371.928 423.4 372.531 422.821L372.558 422.795L372.571 422.781L372.578 422.775L372.584 422.768C373.178 422.154 373.512 421.335 373.519 420.482V420.455C373.528 419.814 373.351 419.183 373.009 418.641C372.666 418.098 372.173 417.667 371.59 417.4Z" fill="#DC8327"/>
<path d="M508.468 417.4C508.468 417.393 508.462 417.393 508.468 417.4L508.442 417.387H508.422H508.369H508.349L508.329 417.38L508.309 417.373L508.303 417.367H508.276L508.263 417.36C507.954 417.25 507.623 417.188 507.295 417.174H507.249H507.223H507.203H507.196C503.121 417.164 499.214 415.548 496.323 412.675C493.432 409.803 491.79 405.907 491.754 401.832V268.134H505.075C505.844 268.136 506.59 267.871 507.184 267.383C507.779 266.895 508.186 266.216 508.335 265.462C508.483 264.707 508.365 263.925 508 263.248C507.635 262.571 507.046 262.042 506.334 261.752L443.028 218.063C442.475 217.681 441.818 217.477 441.146 217.477C440.473 217.477 439.817 217.681 439.264 218.063L375.367 262.09C374.793 262.496 374.361 263.074 374.136 263.74C373.91 264.407 373.901 265.128 374.111 265.8C374.321 266.471 374.739 267.059 375.304 267.479C375.869 267.898 376.553 268.128 377.256 268.134H390.385L390.392 401.779C390.452 413.688 400.029 423.411 412.197 423.709L412.594 423.729H507.15C507.986 423.716 508.786 423.387 509.39 422.808L509.416 422.781L509.43 422.768L509.436 422.762C509.449 422.762 509.443 422.761 509.443 422.755C510.036 422.141 510.371 421.322 510.377 420.468V420.442C510.394 419.803 510.221 419.174 509.882 418.633C509.542 418.092 509.051 417.663 508.468 417.4Z" fill="#F4B21B"/>
<path d="M645.395 417.399C645.395 417.393 645.388 417.393 645.395 417.399L645.375 417.393H645.368H645.328H645.302H645.282L645.262 417.386L645.242 417.38L645.222 417.373H645.182C644.873 417.263 644.549 417.2 644.221 417.187H644.082H644.062C639.987 417.177 636.074 415.56 633.183 412.688C630.292 409.816 628.65 405.92 628.614 401.845V306.666H641.836C642.722 306.67 643.573 306.324 644.206 305.704C644.839 305.083 645.202 304.239 645.216 303.353C645.216 302.695 645.021 302.052 644.655 301.506C644.29 300.959 643.769 300.534 643.161 300.284L579.855 256.595C579.301 256.213 578.645 256.009 577.972 256.009C577.3 256.009 576.644 256.213 576.09 256.595L512.3 300.622C511.725 301.028 511.294 301.606 511.068 302.273C510.843 302.939 510.834 303.66 511.044 304.332C511.254 305.004 511.671 305.591 512.237 306.011C512.802 306.43 513.485 306.66 514.189 306.666H527.345L527.351 401.772C527.417 413.681 536.994 423.404 549.156 423.702L549.554 423.722H644.109C644.945 423.709 645.745 423.38 646.349 422.801L646.375 422.774L646.389 422.761L646.395 422.754C646.409 422.754 646.395 422.754 646.402 422.748C646.995 422.134 647.33 421.315 647.336 420.461V420.455V420.435C647.339 419.796 647.158 419.169 646.813 418.631C646.469 418.092 645.976 417.665 645.395 417.399Z" fill="#F2D864"/>
<path d="M1259.68 271.653C1252.82 264.19 1244.21 258.285 1234.11 254.109C1223.81 249.881 1211.82 247.707 1198.47 247.654C1185.14 247.707 1173.14 249.881 1162.85 254.109C1152.75 258.285 1144.14 264.183 1137.27 271.653C1130.29 279.273 1124.97 288.26 1121.65 298.043C1118.09 308.151 1116.3 319.265 1116.3 331.095C1116.3 340.082 1117.22 348.857 1119.07 357.181C1120.82 365.202 1123.76 372.916 1127.79 380.066C1131.79 387.022 1137.03 393.182 1143.26 398.239C1149.53 403.415 1157.31 407.497 1166.39 410.374C1175.47 413.297 1186.27 414.808 1198.48 414.861C1210.68 414.808 1221.47 413.297 1230.54 410.374C1239.63 407.497 1247.41 403.422 1253.67 398.245C1259.92 393.19 1265.18 387.019 1269.17 380.046C1273.2 372.897 1276.13 365.189 1277.89 357.174C1279.76 348.95 1280.66 340.42 1280.66 331.088C1280.66 319.272 1278.86 308.151 1275.3 298.043C1271.98 288.259 1266.66 279.272 1259.68 271.653ZM1238.6 352.012C1237.16 358.335 1234.64 364.364 1231.15 369.833C1227.81 375.059 1223.25 379.399 1217.87 382.485C1212.42 385.554 1205.91 387.131 1198.51 387.184C1191.08 387.131 1184.59 385.554 1179.18 382.498C1173.77 379.415 1169.18 375.07 1165.81 369.833C1162.48 364.67 1159.98 358.679 1158.37 352.012C1156.76 345.161 1155.97 338.145 1156.01 331.108C1156.01 323.367 1156.84 316.077 1158.47 309.45C1160.06 302.842 1162.63 296.877 1166.11 291.747C1169.53 286.696 1174.13 282.556 1179.52 279.685C1184.86 276.868 1191.23 275.41 1198.46 275.351H1198.52C1205.72 275.41 1212.1 276.862 1217.5 279.672C1222.86 282.557 1227.44 286.695 1230.85 291.734C1234.31 296.844 1236.9 302.795 1238.55 309.456C1240.16 316.143 1240.97 323.42 1240.97 331.115C1241 338.149 1240.2 345.163 1238.6 352.012ZM1383.25 411.315C1389.51 409.085 1395.35 405.811 1400.52 401.632C1405.75 397.377 1410.42 392.486 1414.43 387.071L1415.4 385.766H1420.27L1420.9 389.007V395.018C1420.9 399.226 1421.53 402.805 1422.81 405.973C1424.03 408.777 1425.85 410.917 1428.36 412.442C1430.89 414.012 1434.32 414.828 1438.57 414.874C1442.75 414.828 1446.19 414.012 1448.69 412.462C1451.21 410.936 1453.17 408.643 1454.28 405.92C1455.55 402.812 1456.18 399.233 1456.18 395.024V267.517C1456.26 263.997 1455.65 260.495 1454.4 257.205C1453.32 254.348 1451.44 252.134 1448.63 250.378C1445.75 248.622 1441.59 247.701 1436.29 247.654C1431.09 247.701 1426.95 248.628 1424.04 250.398C1421.4 251.963 1419.36 254.356 1418.23 257.205C1416.98 260.482 1416.38 263.971 1416.46 267.477V343.76C1416.4 350.116 1415.26 355.604 1412.94 360.581C1410.78 365.278 1407.71 369.499 1403.9 373.001C1400.3 376.301 1396.12 378.921 1391.58 380.735C1386.92 382.525 1382.53 383.393 1378.1 383.393C1370.89 383.333 1364.81 381.783 1360 378.787C1355.17 375.74 1351.39 371.304 1349.13 366.062C1346.89 361.012 1345.75 354.994 1345.75 348.201V267.517C1345.83 263.996 1345.23 260.494 1343.97 257.205C1342.86 254.355 1340.83 251.957 1338.21 250.391C1335.33 248.635 1331.16 247.714 1325.86 247.661C1320.63 247.707 1316.47 248.635 1313.56 250.405C1310.96 251.985 1308.94 254.376 1307.82 257.211C1306.56 260.485 1305.96 263.972 1306.05 267.477V357.373C1306.14 368.587 1307.8 378.011 1310.95 385.361C1314.11 392.658 1318.34 398.53 1323.53 402.805C1328.68 407.085 1334.66 410.253 1341.1 412.11C1347.48 413.979 1353.8 414.887 1360.45 414.887H1360.99C1369.28 414.821 1376.77 413.621 1383.25 411.315ZM1079.24 187.562C1076.17 186.071 1072.65 185.329 1068.52 185.329C1064.46 185.329 1060.84 186.091 1057.77 187.582C1054.96 188.988 1052.65 191.226 1051.17 193.991C1049.56 196.894 1048.71 200.672 1048.67 205.211V395.011C1048.72 399.518 1049.56 403.296 1051.17 406.205C1052.72 409.015 1054.9 411.103 1057.82 412.587C1060.84 414.099 1064.45 414.874 1068.53 414.874C1072.67 414.874 1076.18 414.125 1079.27 412.581C1082.08 411.191 1084.39 408.967 1085.89 406.212C1087.5 403.309 1088.35 399.531 1088.39 394.985V205.185C1088.34 200.672 1087.5 196.9 1085.89 193.998C1084.39 191.216 1082.07 188.968 1079.24 187.562ZM2376.98 260.585C2376.19 258.453 2375.07 256.46 2373.66 254.679C2372.15 252.784 2370.09 251.167 2367.4 249.775C2364.78 248.416 2361.42 247.701 2357.41 247.654C2353.83 247.701 2350.89 248.436 2348.5 249.914C2346 251.464 2343.9 253.588 2342.39 256.111C2340.62 259.145 2339.29 262.411 2338.43 265.814L2309.62 372.948H2304.67L2303.37 370.569L2273.63 262.679C2272.35 258.04 2270.02 254.474 2266.51 251.79C2262.9 249.059 2258.47 247.707 2253.01 247.654C2249.62 247.644 2246.29 248.499 2243.34 250.14C2240.5 251.738 2238.13 254.047 2236.46 256.84C2234.71 259.65 2233.86 262.838 2233.81 266.602C2233.81 268.054 2234 269.664 2234.36 271.348C2234.77 273.21 2235.37 275.318 2236.17 277.723C2237.01 280.308 2238.07 283.397 2239.33 287.015L2287.73 424.915L2287.5 425.856C2286.24 430.899 2284.55 434.737 2282.49 437.249C2280.3 439.833 2277.83 441.477 2275.1 442.179C2273.18 442.642 2271.21 442.878 2269.24 442.882L2268.05 442.855H2263.48C2259.73 442.855 2256.56 443.452 2253.84 444.678C2251.35 445.714 2249.22 447.47 2247.74 449.722C2246.3 451.968 2245.57 454.785 2245.53 458.324C2245.53 461.505 2246.35 464.355 2248.02 466.98C2249.74 469.677 2252.36 471.798 2256.07 473.468C2259.89 475.258 2265.03 476.185 2271.4 476.238C2278.24 476.238 2284.25 475.277 2289.24 473.389C2294.14 471.57 2298.59 468.709 2302.27 465.005C2306.13 461.154 2309.59 456.356 2312.57 450.755C2315.64 444.817 2318.54 437.938 2321.18 430.336L2374.65 278.771C2375.73 275.835 2376.55 273.243 2377.16 270.91C2377.68 268.776 2377.95 266.874 2377.95 265.297C2377.94 264.521 2377.78 263.077 2376.98 260.585ZM2080.06 390.332C2079.4 388.012 2078.85 385.322 2078.32 381.836C2077.85 378.661 2077.61 374.718 2077.55 369.422V291.873C2077.51 284.165 2075.82 277.525 2072.54 272.156C2069.17 266.569 2064.51 262.116 2058.29 258.504C2052 254.852 2044.36 252.108 2035.6 250.338C2026.75 248.562 2016.73 247.661 2005.82 247.661C2004.36 247.668 2002.92 247.694 2001.5 247.74L2000.34 247.84C1995.88 248.025 1991.91 248.357 1988.21 248.867L1986.48 249.145C1982.09 249.821 1978.41 250.59 1975.22 251.492C1966.48 253.917 1959.05 257.145 1953.14 261.088C1947.22 265.052 1942.77 269.287 1939.92 273.661C1937.04 278.075 1935.64 282.171 1935.64 286.18C1935.69 288.805 1936.34 291.157 1937.65 293.305C1938.98 295.479 1940.82 297.208 1943.31 298.58C1945.78 299.906 1948.74 300.615 1952.07 300.655C1954.73 300.662 1957.34 299.925 1959.61 298.527C1962.15 296.829 1964.52 294.875 1966.66 292.695C1969.34 289.966 1972.17 287.39 1975.13 284.981C1978.47 282.27 1982.5 280.05 1987.43 278.187C1990.47 277.106 1993.63 276.379 1996.84 276.02L1997.59 275.941C1999.95 275.649 2002.55 275.371 2005.47 275.344C2011.1 275.344 2016.28 276.047 2020.88 277.432C2025.84 278.93 2029.87 281.329 2032.87 284.556C2036.1 287.91 2037.78 292.291 2037.85 297.533C2037.79 302.689 2036.7 306.593 2034.54 309.562C2032.3 312.442 2029.25 314.574 2025.77 315.673C2022.28 316.812 2018.66 317.553 2015 317.88L1986.88 321.041C1978.58 321.91 1970.37 323.431 1962.31 325.588C1954.84 327.669 1948.25 330.598 1942.76 334.276C1937.35 337.884 1932.94 342.807 1929.96 348.585C1926.86 354.504 1925.26 362.039 1925.21 370.993C1925.26 377.66 1926.65 383.797 1929.36 389.199C1932.06 394.6 1935.63 399.107 1940.28 402.971C1944.96 406.824 1950.28 409.811 1956 411.792C1961.98 413.867 1967.93 414.881 1974.17 414.881H1974.9C1982.48 414.881 1989.8 414.059 1996.63 412.435C1997.92 412.13 1999.2 411.792 2000.46 411.414C2001.44 411.129 2002.38 410.758 2003.33 410.387L2005.92 409.419C2006.54 409.207 2007.15 409.002 2007.75 408.743C2011.15 407.319 2014.12 405.847 2016.81 404.25C2023.16 400.472 2029.3 395.349 2035.06 389.033L2040.43 383.141L2040.69 391.108C2040.83 395.396 2041.72 399.471 2043.33 403.229C2044.86 406.689 2047.25 409.433 2050.63 411.573C2053.99 413.714 2058.73 414.821 2064.68 414.867C2067.77 414.864 2070.82 414.195 2073.62 412.906C2076.22 411.693 2078.36 409.95 2079.96 407.723C2081.46 405.622 2082.26 403.143 2082.3 400.333C2082.3 398.974 2082.1 397.589 2081.67 396.019L2080.06 390.332ZM2037.84 354.199C2037.83 358.971 2036.77 363.681 2034.75 368.004C2032.6 372.49 2029.58 376.501 2025.86 379.801C2022.07 383.201 2017.41 385.931 2012 387.933C2009.44 388.834 2006.81 389.517 2004.14 389.974L2002.8 390.226C1999.77 390.703 1996.83 390.948 1993.82 390.975C1987.99 390.915 1982.96 389.954 1978.82 388.112C1974.5 386.216 1971.08 383.552 1968.64 380.192C1966.21 376.876 1964.91 372.866 1964.93 368.753C1964.93 363.457 1966.3 358.951 1969 355.359C1971.62 351.833 1975.46 349.023 1980.39 347.028C1985.11 345.119 1990.85 343.681 1997.45 342.76L2014.2 340.234C2015.93 339.936 2018.05 339.525 2020.43 339.008C2022.68 338.518 2024.97 337.822 2027.21 336.947C2029.25 336.145 2030.96 335.105 2032.43 333.766L2037.85 328.842V354.199H2037.84ZM910.655 224.829C918.287 221.186 926.642 219.312 935.098 219.348C943.495 219.401 950.235 220.475 955.736 222.629C961.164 224.677 965.817 227.447 969.515 230.853C972.908 234.006 975.96 237.507 978.621 241.298C981.027 244.738 983.373 248.032 985.706 251.107C987.82 253.878 990.338 256.157 993.195 257.887C995.952 259.564 999.518 260.432 1003.79 260.479C1010.53 260.432 1015.64 258.663 1018.92 255.216C1022.25 251.783 1023.93 246.779 1023.93 240.311C1023.93 236.414 1022.73 231.927 1020.39 226.99C1017.96 222.045 1014.3 216.995 1009.53 212.025C1004.75 207.041 998.702 202.381 991.558 198.18C984.46 193.998 976.083 190.578 966.671 188.02C957.221 185.448 946.59 184.123 935.078 184.076C920.935 184.123 907.912 186.157 896.386 190.114C885.007 194.084 874.853 199.697 866.224 206.802C857.648 213.926 850.337 222.447 844.599 232.007C838.675 241.919 834.227 252.643 831.397 263.839C828.422 275.697 826.935 287.879 826.969 300.105C827.069 325.687 831.509 347.346 840.171 364.452C848.801 381.471 861.366 394.448 877.504 403.024C893.888 411.726 913.903 416.14 936.98 416.146C949.261 416.047 960.806 414.218 971.291 410.725C981.842 407.14 991.167 402.315 999.001 396.396C1006.89 390.385 1013.07 383.645 1017.36 376.355C1021.66 369.071 1023.87 361.509 1023.92 353.874C1023.83 350.434 1022.84 347.538 1020.89 345.119C1018.74 342.536 1015.97 340.548 1012.83 339.346C1009.35 337.914 1005.61 337.185 1001.84 337.199C998.464 337.245 995.568 338.114 993.023 339.85C990.378 341.712 987.919 344.138 985.553 347.26C982.973 350.693 980.443 354.164 977.965 357.672C975.205 361.584 972.097 365.24 968.68 368.594C964.865 372.284 960.415 375.255 955.544 377.362C950.315 379.629 944.091 380.802 937.013 380.861C925.309 380.802 915.209 378.568 906.944 374.214C898.814 370.002 891.868 363.823 886.737 356.24C881.726 348.751 878.021 340.075 875.722 330.446C873.397 320.497 872.269 310.307 872.361 300.091C872.421 287.499 874.051 276.086 877.206 266.172C880.447 256.177 884.96 247.641 890.607 240.781C896.38 233.789 903.12 228.428 910.655 224.829ZM1638.65 205.185C1638.65 200.744 1637.81 196.98 1636.16 193.998C1634.66 191.216 1632.34 188.968 1629.51 187.562C1623.56 184.626 1614.23 184.573 1608.03 187.589C1605.22 188.994 1602.92 191.232 1601.43 193.998C1599.83 196.894 1598.99 200.665 1598.94 205.225V271.069H1593.9L1592.31 269.532C1588.12 262.695 1582.15 257.119 1575.05 253.394C1573.03 252.359 1570.93 251.475 1568.78 250.749C1568.37 250.61 1567.96 250.497 1567.55 250.385L1566.63 250.12C1565.06 249.639 1563.46 249.234 1561.85 248.907L1561.07 248.708C1560.24 248.536 1559.65 248.469 1559.06 248.403L1556.05 248.012C1553.93 247.8 1551.76 247.661 1549.49 247.648C1540.18 247.701 1531.8 249.185 1524.61 252.062C1517.57 254.816 1511.13 258.923 1505.67 264.15C1500.21 269.424 1495.66 275.57 1492.22 282.336C1488.59 289.471 1485.9 297.051 1484.24 304.883C1482.44 313.184 1481.54 321.654 1481.57 330.147C1481.67 344.715 1483.6 357.473 1487.29 368.044C1491 378.668 1496.1 387.509 1502.47 394.322C1508.57 401.026 1516.06 406.303 1524.43 409.777C1532.8 413.169 1541.74 414.895 1550.77 414.861C1554.26 414.861 1557.68 414.622 1560.9 414.145C1564.22 413.655 1567.5 412.89 1570.69 411.858C1576.47 409.973 1581.78 406.9 1586.29 402.838C1590.66 398.961 1594.08 393.911 1596.48 387.807L1597.29 385.759H1602.73L1603.36 389V396.277C1603.41 402.54 1604.89 407.259 1607.79 410.281C1610.7 413.323 1615.15 414.867 1621 414.867C1627.08 414.867 1631.59 413.336 1634.4 410.314C1637.21 407.279 1638.65 402.56 1638.65 396.277L1638.65 205.185ZM1599.39 351.382C1598.11 357.432 1595.79 363.215 1592.54 368.474C1589.43 373.515 1585.11 377.705 1579.98 380.669C1578.66 381.443 1577.27 382.114 1575.84 382.677C1575.45 382.83 1575.03 382.956 1574.61 383.082L1573.65 383.386C1572.89 383.659 1572.12 383.896 1571.34 384.096C1570.83 384.212 1570.32 384.307 1569.81 384.381L1569.18 384.487C1567.88 384.738 1567.21 384.871 1566.5 384.957C1565.95 385.023 1565.36 385.05 1564.79 385.076L1563.33 385.163C1562.64 385.216 1561.96 385.269 1561.24 385.275C1554.4 385.05 1548.45 383.446 1543.44 380.503C1538.39 377.581 1534.09 373.521 1530.89 368.647C1527.56 363.462 1525.11 357.76 1523.64 351.773C1522.02 345.215 1521.23 338.48 1521.28 331.725C1521.28 327.099 1521.63 322.367 1522.31 317.654C1523.01 312.843 1524.22 308.018 1525.9 303.326C1527.58 298.651 1529.99 294.27 1533.04 290.342C1536.13 286.332 1540.09 283.083 1544.63 280.845C1549.18 278.512 1554.76 277.293 1561.19 277.233H1561.22C1562.08 277.233 1562.89 277.293 1563.71 277.359L1565.13 277.445C1565.67 277.465 1566.2 277.491 1566.71 277.558C1567.6 277.664 1568.43 277.836 1569.27 278.008L1570.39 278.221C1570.85 278.293 1571.31 278.373 1571.73 278.486C1572.69 278.731 1573.59 279.056 1574.48 279.387L1575.28 279.665C1575.66 279.785 1576.05 279.911 1576.4 280.063C1577.87 280.693 1579.28 281.428 1580.61 282.27C1585.84 285.584 1590.05 290.037 1593.09 295.505C1596.08 300.748 1598.27 306.633 1599.61 312.975C1600.91 319.523 1601.52 325.661 1601.47 331.758C1601.47 338.803 1600.79 345.232 1599.39 351.382ZM2212.23 278.698C2214.1 275.782 2215.06 271.798 2215.1 266.848C2215.06 263.143 2214.14 259.902 2212.29 257.026C2210.4 254.113 2207.74 251.775 2204.61 250.265C2201.28 248.549 2197.49 247.701 2193 247.654C2188.06 247.701 2183.6 248.728 2179.83 250.71C2176.06 252.691 2172.83 255.355 2169.97 258.855C2167.09 262.468 2164.69 266.438 2162.83 270.665C2160.8 275.125 2159.19 279.639 2157.88 284.484L2157.24 286.883H2151.52L2150.89 283.642V265.926C2150.84 261.897 2150.04 258.464 2148.51 255.76C2147.1 253.199 2144.96 251.115 2142.36 249.768C2139.67 248.357 2136.62 247.648 2133.25 247.648C2129.87 247.648 2126.82 248.357 2124.15 249.755C2121.54 251.107 2119.53 253.069 2117.97 255.78C2116.45 258.464 2115.66 261.89 2115.61 265.96V395.011C2115.52 398.532 2116.12 402.036 2117.39 405.324C2118.49 408.12 2120.4 410.334 2123.21 412.097C2126.04 413.893 2130.15 414.821 2135.47 414.874C2140.77 414.821 2144.91 413.893 2147.77 412.097C2150.39 410.541 2152.42 408.159 2153.55 405.324C2154.8 402.05 2155.4 398.563 2155.32 395.058V341.235C2155.32 328.139 2156.45 317.926 2158.77 310.006C2161.21 301.775 2164.87 295.784 2169.64 292.191C2174.35 288.579 2180.12 286.737 2186.78 286.737L2195.58 286.744C2199.1 286.744 2202.34 286.094 2205.23 284.808C2208.1 283.549 2210.46 281.508 2212.23 278.698ZM1880.77 259.743C1875.61 255.459 1869.62 252.286 1863.18 250.425C1856.9 248.57 1850.38 247.635 1843.83 247.648C1834.86 247.701 1827.38 248.9 1821.06 251.2C1814.79 253.426 1808.95 256.7 1803.77 260.883C1798.55 265.139 1793.88 270.031 1789.87 275.444L1788.9 276.756H1784.03L1783.39 273.515V267.504C1783.39 263.295 1782.75 259.617 1781.48 256.562C1780.38 253.859 1778.43 251.582 1775.93 250.067C1773.34 248.456 1769.92 247.641 1765.76 247.641C1761.61 247.641 1758.19 248.456 1755.6 250.053C1753.09 251.578 1751.13 253.871 1750.01 256.595C1748.76 259.617 1748.12 263.302 1748.12 267.497V394.998C1748.03 398.516 1748.64 402.017 1749.9 405.304C1751 408.094 1752.9 410.314 1755.69 412.09C1758.54 413.873 1762.69 414.808 1768.01 414.854C1773.27 414.808 1777.41 413.873 1780.28 412.077C1782.91 410.521 1784.94 408.139 1786.06 405.304C1787.29 402.182 1787.88 398.729 1787.83 395.044V318.768C1787.9 312.392 1789.04 306.905 1791.36 301.947C1793.52 297.249 1796.59 293.028 1800.4 289.527C1804 286.229 1808.17 283.611 1812.71 281.799C1817 280.059 1821.57 279.158 1826.2 279.148C1833.46 279.201 1839.55 280.759 1844.32 283.755C1849.12 286.791 1852.9 291.202 1855.15 296.413C1857.41 301.53 1858.55 307.554 1858.55 314.341V395.018C1858.46 398.538 1859.07 402.041 1860.32 405.33C1861.42 408.127 1863.33 410.341 1866.15 412.104C1869.02 413.893 1873.13 414.828 1878.4 414.881C1883.71 414.828 1887.85 413.9 1890.72 412.104C1893.54 410.341 1895.42 408.134 1896.46 405.377C1897.73 402.09 1898.34 398.586 1898.26 395.064V305.161C1898.16 293.941 1896.51 284.517 1893.36 277.173C1890.15 269.804 1885.93 263.938 1880.77 259.743ZM1705.7 250.378C1702.81 248.622 1698.64 247.701 1693.35 247.654C1688.18 247.701 1683.92 248.648 1681.11 250.391C1678.47 251.96 1676.43 254.355 1675.3 257.205C1674.04 260.479 1673.44 263.966 1673.53 267.471V395.018C1673.44 398.538 1674.04 402.042 1675.3 405.33C1676.4 408.127 1678.31 410.341 1681.13 412.104C1683.95 413.9 1688.07 414.828 1693.38 414.881C1698.68 414.828 1702.83 413.9 1705.7 412.104C1708.45 410.374 1710.34 408.16 1711.46 405.33C1712.72 402.057 1713.32 398.569 1713.24 395.064V267.517C1713.32 263.997 1712.72 260.495 1711.46 257.205C1710.35 254.355 1708.32 251.954 1705.7 250.378ZM1703.54 188.079C1700.45 186.292 1696.95 185.351 1693.39 185.351C1689.83 185.351 1686.33 186.292 1683.24 188.079C1680.25 189.834 1677.76 192.326 1676 195.316C1674.22 198.4 1673.28 201.9 1673.28 205.463C1673.28 209.027 1674.22 212.527 1676 215.61C1677.81 218.652 1680.2 221.038 1683.24 222.847C1686.32 224.636 1689.82 225.579 1693.39 225.579C1696.95 225.579 1700.45 224.636 1703.54 222.847C1706.52 221.091 1709.02 218.599 1710.77 215.61C1712.56 212.528 1713.5 209.027 1713.5 205.463C1713.5 201.899 1712.56 198.399 1710.77 195.316C1709.02 192.327 1706.52 189.836 1703.54 188.079Z" fill="#0E2F5A"/>
</g>
<defs>
<clipPath id="clip0_23_94">
<rect width="2500" height="554" fill="white" transform="translate(0 0.5)"/>
</clipPath>
</defs>
</svg>
