<svg width="128" height="129" viewBox="0 0 128 129" fill="none" xmlns="http://www.w3.org/2000/svg">
<path d="M35.387 72.2902L32.5 70.6282L64.652 15.1982L67.535 16.8542L35.387 72.2902Z" fill="#E434AA"/>
<path d="M31.8398 66.2002H96.1398V69.5202H31.8398V66.2002Z" fill="#E434AA"/>
<path d="M65.2733 86.5501L33.1133 68.0661L34.7773 65.1911L66.9413 83.6761L65.2733 86.5501ZM93.2153 38.3711L61.0503 19.8871L62.7183 17.0161L94.8793 35.5001L93.2153 38.3711Z" fill="#E434AA"/>
<path d="M34.7851 38.3599L33.1211 35.4879L65.2851 17.0039L66.9491 19.8749L34.7851 38.3599Z" fill="#E434AA"/>
<path d="M92.6211 72.2902L60.4701 16.8542L63.3561 15.1982L95.5091 70.6282L92.6211 72.2902ZM34.3901 33.2902H37.7231V70.2582H34.3901V33.2902Z" fill="#E434AA"/>
<path d="M90.2769 33.29H93.6089V70.258H90.2769V33.29Z" fill="#E434AA"/>
<path d="M64.707 85.1451L63.25 82.6371L91.223 66.5591L92.68 69.0661L64.707 85.1451Z" fill="#E434AA"/>
<path d="M98.0271 71.336C96.1021 74.676 91.8051 75.813 88.4531 73.895C87.6566 73.4397 86.958 72.8314 86.3974 72.1052C85.8368 71.379 85.4252 70.5491 85.1864 69.6633C84.9475 68.7775 84.8861 67.8532 85.0057 66.9436C85.1253 66.034 85.4235 65.157 85.8831 64.363C87.8091 61.023 92.1051 59.887 95.4571 61.805C98.8321 63.742 99.9771 68.001 98.0271 71.336ZM42.0981 39.184C40.1721 42.52 35.8751 43.66 32.5231 41.742C31.7267 41.2862 31.0282 40.6776 30.4677 39.9511C29.9072 39.2246 29.4957 38.3945 29.2569 37.5085C29.0181 36.6225 28.9567 35.6981 29.0762 34.7883C29.1956 33.8785 29.4936 33.0013 29.9531 32.207C31.8791 28.871 36.1761 27.73 39.5271 29.648C42.8791 31.59 44.0241 35.844 42.0981 39.184ZM29.9731 71.336C28.0431 68 29.1881 63.742 32.5431 61.805C35.8951 59.887 40.1721 61.023 42.1171 64.363C44.0471 67.699 42.9021 71.957 39.5471 73.895C36.1761 75.813 31.8981 74.676 29.9731 71.336ZM85.9021 39.184C83.9771 35.844 85.1221 31.59 88.4721 29.648C91.8241 27.73 96.1021 28.871 98.0471 32.207C99.9771 35.547 98.8321 39.801 95.4771 41.742C92.1251 43.66 87.8281 42.52 85.9021 39.184ZM64.0001 90.902C60.1251 90.902 56.9921 87.785 56.9921 83.926C56.9921 80.07 60.1251 76.953 64.0001 76.953C67.8751 76.953 71.0081 80.07 71.0081 83.926C71.0081 87.762 67.8751 90.902 64.0001 90.902ZM64.0001 26.594C60.1251 26.594 56.9921 23.477 56.9921 19.617C56.9921 15.762 60.1251 12.645 64.0001 12.645C67.8751 12.645 71.0081 15.762 71.0081 19.617C71.0081 23.477 67.8751 26.594 64.0001 26.594ZM106.625 122.008C106.543 122.012 106.46 122 106.383 121.971C106.305 121.942 106.235 121.897 106.175 121.84C106.117 121.781 106.072 121.71 106.043 121.633C106.014 121.555 106 121.473 106.004 121.39V102.926C106.004 102.738 106.062 102.586 106.176 102.473C106.235 102.416 106.306 102.371 106.383 102.343C106.46 102.314 106.543 102.301 106.625 102.305H107.165C107.352 102.305 107.504 102.359 107.617 102.473C107.674 102.533 107.719 102.604 107.748 102.682C107.776 102.76 107.789 102.843 107.785 102.926V120.32H117.543C117.75 120.32 117.91 120.375 118.023 120.488C118.137 120.602 118.191 120.762 118.191 120.965V121.391C118.195 121.473 118.182 121.556 118.154 121.633C118.125 121.71 118.08 121.781 118.023 121.84C117.91 121.953 117.75 122.008 117.543 122.008H106.625ZM100.094 123.836C99.9931 123.837 99.893 123.816 99.8007 123.775C99.7084 123.734 99.626 123.674 99.5591 123.598C99.4319 123.466 99.3092 123.331 99.1911 123.191L97.9451 121.473C96.8161 122.016 95.4961 122.289 93.9881 122.289C92.4221 122.289 91.0941 122.012 90.0001 121.461C88.9061 120.906 88.0661 120.051 87.4841 118.898C86.8981 117.742 86.5781 116.285 86.5241 114.52C86.5041 113.676 86.4921 112.887 86.4921 112.156C86.4921 111.426 86.5041 110.636 86.5231 109.793C86.5781 108.047 86.9181 106.598 87.5391 105.441C88.1601 104.289 89.0231 103.43 90.1291 102.867C91.2301 102.305 92.5161 102.023 93.9891 102.023C95.4571 102.023 96.7421 102.305 97.8481 102.867C98.9491 103.43 99.8161 104.289 100.449 105.441C101.079 106.598 101.414 108.047 101.453 109.793C101.488 110.58 101.506 111.368 101.508 112.156C101.508 112.886 101.488 113.676 101.453 114.52C101.359 117.203 100.668 119.176 99.3871 120.434L101.199 122.964C101.222 122.994 101.24 123.028 101.254 123.063C101.274 123.109 101.281 123.18 101.281 123.273C101.282 123.347 101.267 123.42 101.238 123.488C101.21 123.556 101.167 123.617 101.113 123.668C101.062 123.721 101.001 123.764 100.933 123.793C100.866 123.822 100.793 123.836 100.719 123.836H100.094ZM93.9881 120.602C95.6091 120.602 96.9411 120.113 97.9881 119.137C99.0351 118.16 99.5941 116.574 99.6721 114.379C99.7071 113.535 99.7271 112.793 99.7271 112.156C99.7271 111.52 99.7071 110.777 99.6721 109.934C99.6321 108.469 99.3631 107.277 98.8631 106.359C98.3631 105.438 97.6951 104.769 96.8551 104.344C96.0201 103.922 95.0621 103.711 93.9881 103.711C92.9301 103.711 91.9841 103.921 91.1451 104.344C90.3051 104.77 89.6371 105.438 89.1371 106.359C88.6371 107.277 88.3591 108.469 88.3051 109.934C88.2851 110.777 88.2731 111.52 88.2731 112.156C88.2731 112.793 88.2851 113.536 88.3051 114.379C88.3791 116.574 88.9451 118.16 90.0001 119.137C91.0551 120.113 92.3831 120.602 93.9881 120.602ZM70.8551 122.008C70.7727 122.012 70.6904 121.999 70.6132 121.97C70.536 121.942 70.4655 121.897 70.4061 121.84C70.3482 121.781 70.303 121.71 70.2734 121.633C70.2439 121.555 70.2305 121.473 70.2341 121.39V102.64C70.2341 102.453 70.2931 102.305 70.4061 102.191C70.4656 102.134 70.5363 102.089 70.6137 102.06C70.6911 102.031 70.7736 102.019 70.8561 102.023H71.3361C71.5271 102.023 71.6761 102.078 71.7891 102.191C71.847 102.25 71.8921 102.321 71.9217 102.398C71.9513 102.476 71.9647 102.558 71.9611 102.641V109.312C72.4645 108.659 73.0944 108.115 73.8131 107.711C74.5391 107.297 75.5031 107.09 76.7111 107.09C77.9921 107.09 79.0631 107.367 79.9181 107.922C80.7781 108.472 81.4181 109.222 81.8441 110.172C82.2661 111.122 82.4801 112.195 82.4801 113.395V121.391C82.4837 121.474 82.4704 121.556 82.441 121.633C82.4116 121.71 82.3667 121.781 82.3091 121.84C82.249 121.898 82.1777 121.942 82.0996 121.971C82.0215 122 81.9382 122.013 81.8551 122.008H81.3751C81.2921 122.012 81.2092 121.999 81.1313 121.971C81.0535 121.942 80.9823 121.897 80.9221 121.84C80.8648 121.78 80.8203 121.71 80.7914 121.632C80.7625 121.555 80.7498 121.473 80.7541 121.39V113.535C80.7541 112.035 80.3871 110.855 79.6521 110.004C78.9141 109.148 77.8401 108.723 76.4261 108.723C75.0901 108.723 74.0121 109.148 73.1911 110.003C72.3711 110.855 71.9611 112.035 71.9611 113.535V121.391C71.9646 121.474 71.9511 121.556 71.9215 121.633C71.8919 121.711 71.8469 121.781 71.7891 121.84C71.7291 121.898 71.6579 121.942 71.58 121.971C71.5021 122 71.4191 122.013 71.3361 122.008H70.8551ZM54.4301 127.355C54.3471 127.36 54.2641 127.347 54.1861 127.318C54.1082 127.289 54.0371 127.245 53.9771 127.187C53.9193 127.128 53.8742 127.058 53.8446 126.98C53.8151 126.903 53.8016 126.821 53.8051 126.738V107.992C53.8051 107.805 53.8631 107.652 53.9771 107.539C54.0371 107.481 54.1082 107.437 54.1861 107.408C54.2641 107.379 54.3471 107.367 54.4301 107.371H54.9101C55.0981 107.371 55.2501 107.426 55.3631 107.539C55.4203 107.599 55.4647 107.67 55.4936 107.748C55.5225 107.826 55.5352 107.909 55.5311 107.992V109.312C56.0041 108.676 56.6211 108.145 57.3831 107.722C58.1481 107.301 59.1131 107.09 60.2811 107.09C61.3951 107.09 62.3281 107.281 63.0821 107.668C63.8064 108.026 64.4356 108.551 64.9181 109.199C65.3911 109.839 65.7381 110.551 65.9651 111.339C66.1911 112.129 66.3121 112.934 66.3321 113.762C66.3521 114.043 66.3591 114.352 66.3591 114.692C66.3591 115.027 66.3521 115.336 66.3321 115.617C66.3144 116.437 66.191 117.251 65.9651 118.039C65.7381 118.829 65.3911 119.539 64.9181 120.179C64.4357 120.828 63.8066 121.353 63.0821 121.711C62.3281 122.098 61.3951 122.289 60.2821 122.289C59.1131 122.289 58.1481 122.074 57.3821 121.641C56.6221 121.211 56.0041 120.684 55.5321 120.066V126.738C55.5362 126.821 55.5233 126.903 55.4943 126.981C55.4652 127.058 55.4206 127.129 55.3631 127.188C55.3028 127.245 55.2316 127.289 55.1537 127.318C55.0758 127.347 54.993 127.359 54.9101 127.355H54.4301ZM60.1131 120.656C61.2231 120.656 62.1021 120.414 62.7431 119.926C63.383 119.438 63.8651 118.772 64.1291 118.012C64.4101 117.222 64.5701 116.379 64.6091 115.477C64.6247 114.952 64.6247 114.427 64.6091 113.902C64.5773 113.038 64.4155 112.183 64.1291 111.367C63.8638 110.607 63.3816 109.942 62.7421 109.453C62.1021 108.965 61.2221 108.723 60.1131 108.723C59.0391 108.723 58.1721 108.977 57.5121 109.48C56.8643 109.972 56.361 110.629 56.0551 111.383C55.7505 112.112 55.5732 112.887 55.5311 113.676C55.5111 113.957 55.5041 114.324 55.5041 114.773C55.5041 115.223 55.5121 115.59 55.5311 115.871C55.5511 116.621 55.7231 117.363 56.0551 118.094C56.3829 118.827 56.9008 119.46 57.5551 119.926C58.2231 120.414 59.0751 120.656 60.1131 120.656ZM42.5821 122.29C41.7151 122.299 40.8578 122.106 40.0781 121.727C39.35 121.379 38.7155 120.862 38.2271 120.219C37.7607 119.61 37.5118 118.861 37.5201 118.094C37.5201 116.82 38.0401 115.797 39.0741 115.027C40.1091 114.257 41.4571 113.762 43.1171 113.535L47.5861 112.918V111.93C47.5861 110.937 47.2771 110.152 46.6681 109.582C46.0551 109.008 45.0781 108.722 43.7381 108.722C42.7581 108.722 41.9681 108.914 41.3631 109.301C40.7621 109.684 40.3481 110.187 40.1211 110.805C40.0271 111.085 39.8481 111.227 39.5821 111.227H39.1321C38.9061 111.227 38.7461 111.168 38.6481 111.043C38.5534 110.919 38.504 110.765 38.5081 110.609C38.5081 110.344 38.6091 110.016 38.8051 109.625C39.0041 109.23 39.3091 108.84 39.7271 108.453C40.1411 108.07 40.6761 107.746 41.3361 107.484C41.9961 107.223 42.7961 107.09 43.7381 107.09C44.8521 107.09 45.7701 107.238 46.4961 107.54C47.2231 107.84 47.7891 108.23 48.1961 108.707C48.5981 109.187 48.8861 109.719 49.0551 110.297C49.2271 110.879 49.3091 111.453 49.3091 112.016V121.391C49.3132 121.473 49.3004 121.556 49.2715 121.633C49.2426 121.71 49.1982 121.781 49.1411 121.84C49.0809 121.897 49.0097 121.942 48.9318 121.971C48.854 121.999 48.771 122.012 48.6881 122.008H48.2071C48.1241 122.012 48.0412 121.999 47.9633 121.971C47.8855 121.942 47.8143 121.897 47.7541 121.84C47.6968 121.78 47.6523 121.71 47.6234 121.632C47.5945 121.555 47.5818 121.473 47.5861 121.39V120.066C47.317 120.449 46.9932 120.79 46.6251 121.078C46.2111 121.418 45.6751 121.703 45.0271 121.938C44.3751 122.172 43.5621 122.289 42.5821 122.289V122.29ZM42.8631 120.656C43.7301 120.656 44.5231 120.469 45.2381 120.094C45.9531 119.719 46.5231 119.141 46.9491 118.364C47.3751 117.586 47.5861 116.605 47.5861 115.422V114.465L43.9381 114.973C42.3911 115.176 41.2231 115.535 40.4301 116.039C39.6401 116.547 39.2421 117.184 39.2421 117.953C39.2421 118.574 39.4221 119.082 39.7821 119.477C40.1411 119.867 40.5981 120.164 41.1521 120.359C41.7071 120.559 42.2771 120.656 42.8631 120.656ZM29.6291 122.008C29.5461 122.012 29.4632 121.999 29.3853 121.971C29.3075 121.942 29.2363 121.897 29.1761 121.84C29.1196 121.78 29.0756 121.709 29.0467 121.632C29.0179 121.555 29.0047 121.472 29.0081 121.39V108.02C29.0081 107.832 29.0661 107.676 29.1761 107.555C29.2342 107.494 29.3047 107.446 29.3828 107.414C29.4609 107.383 29.5448 107.368 29.6291 107.371H30.0821C30.2701 107.371 30.4261 107.434 30.5511 107.555C30.6115 107.616 30.6589 107.689 30.6904 107.769C30.7219 107.849 30.7367 107.934 30.7341 108.02V109.313C31.0499 108.678 31.5666 108.164 32.2041 107.852C32.8441 107.532 33.6371 107.372 34.5781 107.372H35.6251C35.8131 107.372 35.9651 107.426 36.0781 107.539C36.1353 107.599 36.1797 107.67 36.2086 107.748C36.2375 107.826 36.2502 107.909 36.2461 107.992V108.382C36.2461 108.574 36.1911 108.722 36.0781 108.836C36.0179 108.893 35.9467 108.938 35.8688 108.967C35.791 108.995 35.708 109.008 35.6251 109.004H34.4101C33.2771 109.004 32.3831 109.332 31.7231 109.988C31.0631 110.645 30.7341 111.539 30.7341 112.664V121.391C30.7374 121.475 30.7228 121.558 30.6912 121.635C30.6596 121.713 30.6119 121.783 30.5511 121.84C30.4222 121.954 30.2542 122.014 30.0821 122.008H29.6291ZM17.3871 122.29C15.7661 122.29 14.4021 121.977 13.3011 121.348C12.2193 120.74 11.3433 119.823 10.7851 118.715C10.2071 117.59 9.89508 116.293 9.83508 114.832C9.81608 113.984 9.80908 113.094 9.80908 112.156C9.80908 111.219 9.81608 110.328 9.83608 109.48C9.89508 108 10.2071 106.7 10.7861 105.582C11.3504 104.478 12.2313 103.566 13.3161 102.965C14.4261 102.335 15.7861 102.023 17.3861 102.023C18.6881 102.023 19.8011 102.215 20.7231 102.602C21.6481 102.984 22.4031 103.465 22.9841 104.035C23.5701 104.609 24.0041 105.184 24.2851 105.765C24.5701 106.348 24.7191 106.835 24.7381 107.23C24.751 107.304 24.7449 107.38 24.7204 107.452C24.6959 107.523 24.6539 107.587 24.5981 107.637C24.473 107.746 24.3106 107.802 24.1451 107.793H23.5231C23.3521 107.793 23.2301 107.75 23.1561 107.668C23.0781 107.582 23.0041 107.438 22.9301 107.23C22.7225 106.617 22.4001 106.048 21.9801 105.555C21.5401 105.02 20.9451 104.578 20.2001 104.235C19.4571 103.887 18.5161 103.711 17.3871 103.711C15.7071 103.711 14.3471 104.168 13.3011 105.078C12.2541 105.988 11.6951 107.504 11.6171 109.625C11.5624 111.313 11.5624 113.003 11.6171 114.691C11.6951 116.793 12.2541 118.301 13.3011 119.223C14.3481 120.141 15.7071 120.602 17.3871 120.602C18.5001 120.602 19.4971 120.391 20.3831 119.969C21.2652 119.552 21.9967 118.872 22.4771 118.023C22.9841 117.153 23.2381 116.039 23.2381 114.691V113.254H18.3201C18.2358 113.257 18.1519 113.243 18.0738 113.211C17.9957 113.179 17.9252 113.131 17.8671 113.07C17.7524 112.943 17.6921 112.776 17.6991 112.605V112.211C17.6991 112.008 17.7541 111.848 17.8671 111.734C17.9273 111.677 17.9985 111.632 18.0763 111.604C18.1542 111.575 18.2371 111.562 18.3201 111.566H24.3711C24.5781 111.566 24.7381 111.621 24.8511 111.734C24.9651 111.848 25.0201 112.008 25.0201 112.211V114.691C25.0201 116.191 24.7231 117.516 24.1291 118.661C23.5484 119.792 22.6421 120.722 21.5271 121.332C20.3871 121.969 19.0071 122.289 17.3871 122.289V122.29Z" fill="#E434AA"/>
</svg>
