<svg width="2501" height="700" viewBox="0 0 2501 700" fill="none" xmlns="http://www.w3.org/2000/svg">
<g clip-path="url(#clip0_23_79)">
<path d="M565.733 0.211914H64.2C29.25 0.211914 1.29004 28.1719 1.29004 63.1219V636.302C1.29004 671.252 29.25 699.212 64.2 699.212H565.733C600.683 699.212 628.643 671.252 628.643 636.302V63.1219C628.643 28.1719 600.683 0.211914 565.733 0.211914ZM593.693 636.302C593.693 652.029 581.46 664.262 565.733 664.262H64.2C48.4725 664.262 36.24 652.029 36.24 636.302V63.1219C36.24 47.3944 48.4725 35.1619 64.2 35.1619H565.733C581.46 35.1619 593.693 47.3944 593.693 63.1219V636.302ZM158.565 594.362L237.203 524.462L158.565 454.562V594.362ZM441.66 311.267C427.68 297.287 401.468 279.812 357.78 279.812C310.598 279.812 261.668 292.044 226.718 304.277V105.062H158.565V407.379L207.495 384.662C207.495 384.662 287.88 347.964 357.78 347.964C392.73 347.964 401.468 367.187 401.468 384.662V594.362H471.368V384.662C471.368 379.419 471.368 340.974 441.66 311.267ZM349.043 218.649H418.943C450.398 181.952 466.125 145.254 471.368 105.062H401.468C394.478 145.254 377.003 181.952 349.043 218.649ZM2280.03 382.914V227.387H2349.93V381.167C2349.93 416.117 2362.16 433.592 2390.12 433.592C2418.08 433.592 2428.57 417.864 2428.57 381.167V227.387H2496.72V382.914C2496.72 451.067 2463.52 491.259 2388.38 491.259C2313.23 491.259 2280.03 451.067 2280.03 382.914ZM1986.45 229.134H2056.35V323.499L2128 229.134H2208.38L2121.01 330.489L2215.37 487.764H2136.74L2075.57 384.662L2056.35 407.379V487.764H1986.45V229.134ZM1654.43 356.702C1654.43 262.337 1719.08 222.144 1781.99 222.144C1844.9 222.144 1909.56 262.337 1909.56 356.702C1909.56 451.067 1844.9 491.259 1781.99 491.259C1719.08 491.259 1654.43 452.814 1654.43 356.702ZM1837.91 356.702C1837.91 309.519 1816.94 279.812 1780.25 279.812C1743.55 279.812 1722.58 309.519 1722.58 356.702C1722.58 403.884 1743.55 435.339 1780.25 435.339C1816.94 435.339 1837.91 405.632 1837.91 356.702ZM1373.08 229.134H1474.43C1540.84 229.134 1581.03 251.852 1581.03 313.014C1581.03 353.207 1563.56 377.672 1530.35 388.157L1584.53 487.764H1511.13L1460.45 398.642H1441.23V487.764H1373.08V229.134ZM1472.69 344.469C1500.65 344.469 1514.63 335.732 1514.63 314.762C1514.63 293.792 1502.39 285.054 1472.69 285.054H1442.98V344.469H1472.69ZM1105.71 229.134H1290.95V286.802H1175.61V328.742H1257.74V382.914H1175.61V430.097H1296.19V486.017H1105.71V229.134ZM789.413 229.134H859.313V325.247H944.94V229.134H1014.84V487.764H944.94V382.914H859.313V487.764H789.413V229.134Z" fill="#430098"/>
</g>
<defs>
<clipPath id="clip0_23_79">
<rect width="2500" height="699" fill="white" transform="translate(0.752441 0.211914)"/>
</clipPath>
</defs>
</svg>
