<svg width="2500" height="1534" viewBox="0 0 2500 1534" fill="none" xmlns="http://www.w3.org/2000/svg">
<g clip-path="url(#clip0_23_31)">
<path d="M1235.89 1529.08C1227.43 1529.08 1219.53 1526.82 1212.19 1522.87L1137.15 1478.3C1125.86 1472.09 1131.51 1469.83 1134.89 1468.7C1150.13 1463.63 1152.95 1462.49 1168.75 1453.47C1170.44 1452.34 1172.7 1452.91 1174.39 1454.03L1231.95 1488.45C1234.2 1489.58 1237.02 1489.58 1238.71 1488.45L1463.85 1358.11C1466.11 1356.98 1467.24 1354.72 1467.24 1351.9V1091.78C1467.24 1088.95 1466.11 1086.7 1463.85 1085.57L1238.71 955.793C1236.46 954.661 1233.64 954.661 1231.95 955.793L1006.8 1085.57C1004.55 1086.7 1003.42 1089.52 1003.42 1091.78V1351.9C1003.42 1354.16 1004.55 1356.98 1006.8 1358.11L1068.31 1393.66C1101.6 1410.58 1122.48 1390.83 1122.48 1371.09V1114.35C1122.48 1110.96 1125.3 1107.58 1129.25 1107.58H1158.02C1161.41 1107.58 1164.8 1110.4 1164.8 1114.35V1371.09C1164.8 1415.66 1140.53 1441.62 1098.21 1441.62C1085.24 1441.62 1075.08 1441.62 1046.3 1427.51L987.056 1393.66C972.386 1385.19 963.358 1369.39 963.358 1352.46V1092.34C963.358 1075.42 972.386 1059.61 987.056 1051.15L1212.19 920.808C1226.3 912.908 1245.49 912.908 1259.59 920.808L1484.73 1051.15C1499.4 1059.61 1508.43 1075.42 1508.43 1092.34V1352.46C1508.43 1369.39 1499.4 1385.19 1484.73 1393.66L1259.59 1524C1252.26 1527.39 1243.79 1529.08 1235.89 1529.08ZM1305.3 1350.21C1206.55 1350.21 1186.24 1305.07 1186.24 1266.7C1186.24 1263.31 1189.06 1259.93 1193.01 1259.93H1222.35C1225.74 1259.93 1228.56 1262.18 1228.56 1265.57C1233.07 1295.47 1246.05 1310.15 1305.86 1310.15C1353.26 1310.15 1373.58 1299.42 1373.58 1274.03C1373.58 1259.36 1367.93 1248.65 1294.01 1241.31C1232.51 1235.1 1194.14 1221.56 1194.14 1172.47C1194.14 1126.76 1232.51 1099.68 1296.83 1099.68C1369.06 1099.68 1404.61 1124.51 1409.12 1178.67C1409.12 1180.37 1408.56 1182.06 1407.43 1183.75C1406.3 1184.88 1404.61 1186.01 1402.91 1186.01H1373.57C1370.75 1186.01 1367.93 1183.75 1367.37 1180.93C1360.6 1149.9 1343.1 1139.74 1296.83 1139.74C1244.92 1139.74 1238.71 1157.8 1238.71 1171.34C1238.71 1187.7 1246.05 1192.78 1316.02 1201.81C1385.42 1210.84 1418.15 1223.81 1418.15 1272.34C1417.59 1321.99 1376.96 1350.21 1305.3 1350.21Z" fill="#539E43"/>
<path d="M537.341 511.721C537.341 501.566 531.697 491.968 522.67 486.891L283.424 349.214C279.469 346.953 274.958 345.825 270.447 345.259H268.187C263.676 345.259 259.16 346.953 255.21 349.214L15.9644 486.891C6.93236 491.968 1.29346 501.562 1.29346 511.721L1.85979 881.872C1.85979 886.95 4.68168 892.027 9.1928 894.288C13.7088 897.11 19.3477 897.11 23.3023 894.288L165.495 813.034C174.522 807.956 180.166 798.363 180.166 788.208V614.979C180.166 604.824 185.805 595.231 194.837 590.153L255.21 555.168C259.726 552.346 264.803 551.213 269.881 551.213C274.958 551.213 280.036 552.346 283.99 555.168L344.363 590.153C353.395 595.231 359.034 604.819 359.034 614.979V788.208C359.034 798.363 364.678 807.956 373.705 813.034L515.898 894.288C520.414 897.11 526.053 897.11 530.569 894.288C535.085 892.027 537.907 886.95 537.907 881.872L537.341 511.721ZM1687.3 2.19411C1682.79 -0.0663314 1677.15 -0.0663314 1673.19 2.19411C1668.68 5.016 1665.86 9.52712 1665.86 14.6046V381.377C1665.86 384.761 1664.17 388.144 1660.78 390.404C1657.4 392.094 1654.01 392.094 1650.63 390.404L1590.81 355.985C1586.43 353.488 1581.47 352.175 1576.42 352.175C1571.38 352.175 1566.42 353.488 1562.03 355.985L1322.79 494.229C1313.76 499.306 1308.12 508.899 1308.12 519.054V794.975C1308.12 805.13 1313.76 814.728 1322.79 819.805L1562.03 958.049C1566.42 960.546 1571.38 961.858 1576.42 961.858C1581.47 961.858 1586.43 960.546 1590.81 958.049L1830.06 819.805C1839.09 814.728 1844.73 805.135 1844.73 794.975V107.146C1844.73 96.4248 1839.09 86.8362 1830.06 81.7539L1687.3 2.19411ZM1665.3 704.132C1665.3 706.954 1664.17 709.21 1661.91 710.338L1580.09 757.734C1578.95 758.291 1577.7 758.581 1576.42 758.581C1575.15 758.581 1573.9 758.291 1572.76 757.734L1490.94 710.338C1488.68 709.21 1487.55 706.388 1487.55 704.132V609.335C1487.55 606.513 1488.68 604.258 1490.94 603.13L1572.76 555.729C1573.9 555.172 1575.15 554.882 1576.42 554.882C1577.7 554.882 1578.95 555.172 1580.09 555.729L1661.91 603.13C1664.17 604.253 1665.3 607.08 1665.3 609.335V704.132ZM2483.47 607.08C2492.5 602.002 2497.58 592.409 2497.58 582.249V515.105C2497.58 504.95 2491.94 495.356 2483.47 490.279L2245.92 352.602C2241.53 350.106 2236.58 348.794 2231.53 348.794C2226.49 348.794 2221.53 350.106 2217.14 352.602L1977.9 490.84C1968.86 495.918 1963.23 505.511 1963.23 515.671V791.591C1963.23 801.746 1968.86 811.34 1977.9 816.417L2215.45 951.839C2224.48 956.916 2235.2 956.916 2243.66 951.839L2387.54 871.722C2392.06 869.462 2394.88 864.384 2394.88 859.307C2394.88 854.23 2392.06 849.152 2387.54 846.892L2147.17 708.648C2142.66 705.831 2139.84 701.315 2139.84 696.238V609.907C2139.84 604.829 2142.66 599.752 2147.17 597.491L2222.22 554.606C2224.42 553.224 2226.96 552.49 2229.56 552.49C2232.15 552.49 2234.69 553.224 2236.89 554.606L2311.93 597.491C2316.45 600.313 2319.27 604.824 2319.27 609.907V677.617C2319.27 682.695 2322.09 687.772 2326.61 690.028C2331.12 692.85 2336.76 692.85 2341.28 690.028L2483.47 607.08Z" fill="#333333"/>
<path d="M2227.86 594.103C2228.7 593.552 2229.68 593.258 2230.68 593.258C2231.69 593.258 2232.67 593.552 2233.5 594.103L2279.21 620.623C2280.9 621.746 2282.03 623.44 2282.03 625.7V678.74C2282.03 680.996 2280.9 682.69 2279.21 683.817L2233.5 710.337C2232.67 710.889 2231.69 711.182 2230.68 711.182C2229.68 711.182 2228.7 710.889 2227.86 710.337L2182.16 683.817C2180.46 682.69 2179.33 680.996 2179.33 678.74V625.7C2179.33 623.44 2180.46 621.746 2182.16 620.623L2227.86 594.103Z" fill="#539E43"/>
<path d="M937.4 353.73C933.015 351.234 928.057 349.921 923.012 349.921C917.967 349.921 913.009 351.234 908.624 353.73L671.073 490.835C662.041 495.913 656.963 505.506 656.963 515.661V790.459C656.963 800.614 662.607 810.207 671.073 815.285L908.624 952.4C913.009 954.896 917.967 956.209 923.012 956.209C928.057 956.209 933.015 954.896 937.4 952.4L1174.96 815.285C1183.98 810.207 1189.07 800.614 1189.07 790.459V515.666C1189.07 505.511 1183.42 495.918 1174.96 490.84L937.4 353.73Z" fill="url(#paint0_linear_23_31)"/>
</g>
<defs>
<linearGradient id="paint0_linear_23_31" x1="36940" y1="10952.1" x2="10902" y2="51865.4" gradientUnits="userSpaceOnUse">
<stop stop-color="#41873F"/>
<stop offset="0.3288" stop-color="#418B3D"/>
<stop offset="0.6352" stop-color="#419637"/>
<stop offset="0.9319" stop-color="#3FA92D"/>
<stop offset="1" stop-color="#3FAE2A"/>
</linearGradient>
<clipPath id="clip0_23_31">
<rect width="2500" height="1533" fill="white" transform="translate(0 0.5)"/>
</clipPath>
</defs>
</svg>
