<svg width="512" height="513" viewBox="0 0 512 513" fill="none" xmlns="http://www.w3.org/2000/svg">
<path d="M156.12 302.21C181.79 302.21 202.55 281.45 202.55 255.78C202.55 230.11 181.79 209.35 156.12 209.35C130.45 209.35 109.69 230.11 109.69 255.78C109.69 281.45 130.45 302.21 156.12 302.21ZM46.43 395.07C72.1 395.07 92.86 374.31 92.86 348.64C92.86 322.97 72.1 302.21 46.43 302.21C20.76 302.21 0 322.97 0 348.64C0 374.31 20.76 395.07 46.43 395.07ZM465.57 395.07C491.24 395.07 512 374.31 512 348.64C512 322.97 491.24 302.21 465.57 302.21C439.9 302.21 419.14 322.97 419.14 348.64C419.14 374.31 439.9 395.07 465.57 395.07Z" fill="black"/>
<path d="M313.09 257.74C311.55 242.17 310.85 229.26 298.92 220.29C283.91 208.79 266.8 216.22 245.9 208.65C225.28 203.6 209.99 185.36 209.99 163.48C209.99 137.81 231.17 117.05 257.26 117.05C276.62 117.05 293.17 128.41 300.46 144.82C311.68 166.14 304.39 187.74 318.42 198.69C335.11 211.6 357.56 202.2 382.67 214.4C390.67 218.05 397.54 223.94 402.31 231.23C407.08 238.52 409.88 247.22 409.88 256.48C409.88 278.36 394.59 296.6 373.97 301.65C352.93 309.22 335.96 301.79 320.95 313.29C303.98 326.2 313.09 347.8 299.35 370.66C291.49 385.67 275.64 396.05 257.27 396.05C231.18 396.05 210 375.29 210 349.62C210 330.96 221.22 314.83 237.21 307.54C262.32 295.34 284.76 304.73 301.46 291.83C311.13 284.11 313.09 272.61 313.09 257.74Z" fill="#D0021B"/>
</svg>
