<svg width="513" height="76" viewBox="0 0 513 76" fill="none" xmlns="http://www.w3.org/2000/svg">
<g clip-path="url(#clip0_23_101)">
<path d="M255.061 9.21043V69.3758L248.504 74.6569V24.6076H236.161L255.061 9.21043ZM482.485 0.0283203C487.976 0.0283203 493.075 0.856354 497.781 2.51239C502.309 4.07644 506.214 5.83485 509.498 7.78762L510.071 8.13424L503.272 21.0776C502.652 20.57 501.776 19.9894 500.645 19.3359L500.003 18.9722L499.31 18.594L498.566 18.2013C496.474 17.0682 493.99 16.1094 491.114 15.325C488.237 14.4534 485.274 14.0176 482.223 14.0176C474.03 14.0176 469.934 16.3273 469.934 20.9468C469.934 23.6488 471.415 25.5663 474.379 26.6996L475.054 26.9444L475.772 27.1932L476.532 27.446L477.335 27.7028L478.181 27.9636L479.069 28.2284C479.221 28.2729 479.374 28.3175 479.53 28.3623L480.482 28.6332L481.477 28.908L482.515 29.1868L483.596 29.4696L484.719 29.7565L486.484 30.1942L487.714 30.4911C492.857 31.7985 497.302 33.2802 501.05 34.9362C504.725 36.5233 507.56 38.6307 509.554 41.2583L509.809 41.604C511.901 44.306 512.947 47.8793 512.947 52.3245C512.947 57.7284 511.553 62.0867 508.764 65.3988C506.062 68.6238 502.488 70.9771 498.043 72.4588C493.598 73.8534 488.804 74.5507 483.661 74.5507C477.734 74.5507 471.851 73.7227 466.011 72.0666C460.45 70.4894 455.481 68.3588 451.105 65.6749L450.453 65.2681L457.513 51.5403C458.646 52.6734 460.52 53.9372 463.135 55.3318C465.837 56.7264 468.975 57.903 472.548 58.8618C476.122 59.8206 479.913 60.3 483.923 60.3C491.942 60.3 495.951 58.1645 495.951 53.8937C495.951 51.0174 494.077 48.9691 490.329 47.7488L489.428 47.4326L488.482 47.1112L487.49 46.7849L486.453 46.4536L485.371 46.1172L484.244 45.7758C484.053 45.7185 483.859 45.661 483.664 45.6032L482.469 45.2543L481.229 44.9004L479.944 44.5414L478.613 44.1774L476.533 43.622L475.817 43.4344C468.321 41.5169 462.743 39.0764 459.082 36.1129C455.508 33.0623 453.722 28.7043 453.722 23.0387C453.722 17.9834 454.986 13.7561 457.513 10.3568C460.128 6.95758 463.614 4.38634 467.972 2.64313C472.418 0.899926 477.255 0.0283203 482.485 0.0283203ZM361.239 0.159053C366.77 0.159053 371.821 1.16637 376.385 3.18099L376.931 3.42758C381.637 5.51943 385.647 8.35215 388.959 11.9257C392.358 15.4121 394.97 19.378 396.8 23.8231C398.631 28.2685 399.549 32.8005 399.549 37.42C399.549 42.2139 398.59 46.8337 396.672 51.2788C394.755 55.6369 392.05 59.5591 388.564 63.0455C385.164 66.4448 381.114 69.1468 376.408 71.1514C371.701 73.1561 366.558 74.1585 360.98 74.1585C355.228 74.1585 349.998 73.1561 345.291 71.1514C340.585 69.0596 336.529 66.2705 333.13 62.784C329.73 59.2104 327.116 55.2011 325.285 50.7559C323.458 46.3107 322.54 41.7348 322.54 37.0281C322.54 32.2343 323.498 27.6148 325.416 23.1694C327.246 18.9263 329.794 15.1597 333.054 11.8695L333.525 11.4028C337.011 7.91634 341.105 5.17079 345.812 3.16609C350.518 1.16141 355.661 0.159053 361.239 0.159053ZM45.7914 0.551289L77.5614 73.6355H60.8265L53.5051 56.5085H25.1343L17.8128 73.6355H0.947266L32.848 0.551289H45.7914ZM139.372 0.551289L159.506 26.438L179.64 0.551289H196.767L167.874 37.5511L195.852 73.6355H178.725L159.506 48.7948L140.418 73.6355H123.029L151.139 37.5511L122.114 0.551289H139.372ZM267.052 0.216533V49.1216H279.741L260.509 64.905V4.77257L267.052 0.216533ZM360.98 14.2791C356.186 14.2791 352.087 15.4121 348.688 17.6783C345.376 19.9445 342.848 22.8208 341.105 26.3072C339.362 29.7938 338.49 33.4109 338.49 37.1588C338.49 41.0811 339.408 44.829 341.238 48.4025C343.066 51.889 345.637 54.7217 348.949 56.9007C352.349 59.0797 356.402 60.1692 361.108 60.1692C365.902 60.1692 369.955 59.0361 373.267 56.77C376.582 54.4166 379.107 51.4967 380.85 48.01C382.593 44.4365 383.468 40.776 383.468 37.0281C383.468 33.1059 382.552 29.4013 380.722 25.915C378.892 22.4286 376.277 19.6394 372.875 17.5476C369.563 15.3686 365.6 14.2791 360.98 14.2791ZM39.3851 19.7702L28.6643 42.7807H49.7136L39.3851 19.7702Z" fill="#5A29E4"/>
</g>
<defs>
<clipPath id="clip0_23_101">
<rect width="512" height="75" fill="white" transform="translate(0.947266 0.0283203)"/>
</clipPath>
</defs>
</svg>
