<svg width="257" height="236" viewBox="0 0 257 236" fill="none" xmlns="http://www.w3.org/2000/svg">
<g clip-path="url(#clip0_23_106)">
<path d="M234.202 105.598C234.202 92.5501 218.844 80.9791 195.229 73.9153C200.91 49.9213 198.429 30.832 187.123 24.3743C184.351 22.8346 181.223 22.0509 178.052 22.1018C167.504 22.1018 154.172 29.4685 140.707 42.2136C127.242 29.5632 113.948 22.2343 103.419 22.2343C100.199 22.1632 97.0194 22.9613 94.2149 24.5447C82.9659 31.0214 80.6365 49.997 86.2421 73.8775C62.7404 80.9034 47.4577 92.3796 47.4197 105.371C47.3819 118.362 62.7972 129.99 86.4126 137.035C80.7312 161.048 83.1931 180.118 94.5179 186.576C97.2798 188.124 100.404 188.908 103.57 188.848C114.137 188.848 127.47 181.482 140.934 168.736C154.38 181.387 167.674 188.716 178.223 188.716C181.441 188.775 184.617 187.978 187.426 186.405C198.675 179.929 200.986 160.953 195.399 137.167C218.901 130.047 234.184 118.57 234.202 105.598ZM149.38 46.4935C164.89 32.6122 174.587 31.1161 178.033 31.1161C179.632 31.0648 181.215 31.4441 182.616 32.2145C188.032 35.3013 190.191 46.1905 188.468 60.6211C188.026 64.3063 187.394 67.9662 186.574 71.586C178.727 69.762 170.769 68.4525 162.75 67.6659C157.976 60.9656 152.763 54.5885 147.146 48.5767C147.846 47.876 148.604 47.1753 149.38 46.4935ZM102.434 116.336C103.911 119.176 105.483 122.017 107.111 124.877C108.74 127.736 110.445 130.634 112.338 133.493C107.206 132.755 102.226 131.827 97.4911 130.728C98.8168 125.918 100.502 121.184 102.434 116.336ZM97.1881 80.2784C101.979 79.1611 106.998 78.2331 112.206 77.5135C110.312 80.3163 108.683 83.1948 106.979 86.2059C105.275 89.217 103.778 91.8872 102.32 94.7658C100.389 89.842 98.6779 85.0128 97.1881 80.2784ZM107.055 105.541C109.403 100.58 111.985 95.618 114.8 90.6563C117.641 85.6946 120.69 80.8655 123.833 76.2447C129.344 75.8281 135.026 75.6008 140.877 75.6197C146.729 75.6387 152.24 75.847 157.713 76.2826C160.857 80.8655 163.868 85.7514 166.708 90.5805C169.549 95.4097 172.163 100.466 174.511 105.409C172.181 110.37 169.587 115.351 166.784 120.275C163.981 125.199 160.895 130.085 157.751 134.705C152.24 135.141 146.559 135.349 140.707 135.349C134.855 135.349 129.344 135.103 123.871 134.668C120.728 130.085 117.698 125.312 114.857 120.37C112.016 115.427 109.498 110.484 107.13 105.541H107.055ZM169.284 77.5703C174.435 78.29 179.416 79.2179 184.131 80.3163C182.73 84.9939 181.063 89.7851 179.132 94.6143C177.636 91.7736 176.083 88.933 174.435 86.0734C172.787 83.2138 171.045 80.3352 169.36 77.5703H169.284ZM174.511 124.763C176.139 121.897 177.692 119.038 179.169 116.184C181.063 121.108 182.957 125.956 184.283 130.691C179.51 131.808 174.492 132.717 169.284 133.437C171.115 130.634 172.882 127.743 174.587 124.763H174.511ZM140.745 55.0155C144.154 58.6515 147.506 62.5906 150.782 66.8137C147.543 66.6811 144.229 66.5864 140.877 66.5864C137.525 66.5864 134.098 66.5865 130.784 66.8137C134.022 62.6095 137.336 58.6515 140.745 55.0155ZM98.741 32.2903C100.178 31.5261 101.793 31.16 103.419 31.2297C106.831 31.3719 110.177 32.2165 113.247 33.7106C120.187 36.9827 126.576 41.3144 132.185 46.5504L134.401 48.5767C128.841 54.5446 123.679 60.8707 118.948 67.5144C110.886 68.2953 102.884 69.5985 94.9913 71.4156C94.1581 67.7416 93.4763 64.1435 93.0976 60.6779C91.128 46.3799 93.4006 35.4718 98.7221 32.366L98.741 32.2903ZM88.723 128.304C85.1647 127.218 81.6631 125.954 78.2315 124.517C64.7857 118.836 56.4531 111.545 56.4531 105.314C56.4531 99.0836 64.8236 91.8304 78.2504 86.2438C81.6209 84.8477 85.0592 83.6216 88.5525 82.5699C90.9199 90.4157 93.8048 98.096 97.1881 105.56C93.8768 112.95 91.0491 120.548 88.723 128.304ZM132.28 164.475C116.77 178.357 107.074 179.834 103.608 179.834C102.009 179.887 100.426 179.508 99.0251 178.736C93.6089 175.649 91.45 164.76 93.1733 150.329C93.6132 146.65 94.2453 142.996 95.0671 139.383C102.917 141.191 110.874 142.494 118.891 143.284C123.66 149.989 128.873 156.366 134.495 162.373L132.28 164.475ZM140.934 155.935C137.525 152.299 134.173 148.359 130.878 144.136C134.136 144.288 137.45 144.364 140.802 144.364C144.154 144.364 147.581 144.364 150.895 144.155C147.619 148.359 144.286 152.299 140.915 155.935H140.934ZM182.938 178.66C181.501 179.447 179.879 179.833 178.242 179.777C174.795 179.777 164.985 178.262 149.532 164.438L147.316 162.411C152.87 156.443 158.025 150.117 162.75 143.474C170.82 142.704 178.829 141.4 186.726 139.572C187.559 143.246 188.222 146.844 188.619 150.31C190.494 164.589 188.316 175.497 182.919 178.584L182.938 178.66ZM203.391 124.801C200.152 126.127 196.725 127.358 193.089 128.456C190.712 120.611 187.821 112.931 184.434 105.466C187.761 98.0839 190.601 90.4926 192.937 82.7403C196.495 83.8266 199.997 85.0907 203.429 86.5279C216.856 92.2092 225.207 99.5002 225.188 105.731C225.169 111.961 216.818 119.139 203.372 124.725L203.391 124.801ZM140.745 122.869C150.346 122.88 158.138 115.105 158.149 105.503C158.159 95.9021 150.384 88.1102 140.783 88.0997C131.181 88.0893 123.389 95.8642 123.379 105.466C123.369 110.078 125.194 114.505 128.452 117.77C131.71 121.035 136.133 122.869 140.745 122.869ZM25.2248 0.702148V210.248H256.397V0.702148H25.2248ZM247.364 201.234H34.277V9.73544H247.364V201.234ZM86.3936 137.035C80.7123 161.048 83.1742 180.118 94.499 186.576C97.2609 188.124 100.385 188.908 103.551 188.848C114.118 188.848 127.451 181.482 140.915 168.736C154.361 181.387 167.655 188.716 178.204 188.716C181.422 188.775 184.598 187.978 187.407 186.405C198.656 179.929 200.967 160.953 195.38 137.167C218.882 130.122 234.165 118.646 234.184 105.674C234.202 92.7016 218.825 81.0549 195.21 73.9911C200.891 49.997 198.41 30.9078 187.104 24.45C184.332 22.9104 181.204 22.1267 178.033 22.1775C167.485 22.1775 154.153 29.5443 140.688 42.2894C127.223 29.639 113.929 22.3101 103.4 22.3101C100.18 22.2389 97.0004 23.0371 94.196 24.6205C82.947 31.0972 80.6176 50.0728 86.2232 73.9532C62.7215 80.9791 47.4387 92.4554 47.4008 105.447C47.363 118.438 62.7972 129.952 86.4126 137.035H86.3936ZM132.242 164.475C116.732 178.357 107.036 179.834 103.57 179.834C101.971 179.887 100.388 179.508 98.9872 178.736C93.571 175.649 91.4121 164.76 93.1354 150.329C93.5753 146.65 94.2074 142.996 95.0292 139.383C102.879 141.191 110.836 142.494 118.853 143.284C123.622 149.989 128.835 156.366 134.458 162.373L132.242 164.475ZM179.188 94.6143C177.692 91.7736 176.139 88.933 174.492 86.0734C172.844 83.2138 171.083 80.392 169.341 77.5703C174.492 78.29 179.472 79.2179 184.188 80.3163C182.806 84.9939 181.139 89.7851 179.207 94.6143H179.188ZM184.339 130.596C179.567 131.713 174.549 132.622 169.341 133.342C171.121 130.539 172.863 127.648 174.568 124.668C176.272 121.689 177.825 118.829 179.226 116.09C181.215 121.108 182.938 125.918 184.302 130.691L184.339 130.596ZM174.473 105.314C172.144 110.276 169.549 115.256 166.746 120.18C163.944 125.104 160.857 129.99 157.713 134.611C152.202 135.046 146.521 135.255 140.669 135.255C134.817 135.255 129.306 135.008 123.833 134.573C120.69 129.99 117.66 125.218 114.819 120.275C111.978 115.332 109.384 110.389 107.017 105.447C109.365 100.485 111.947 95.5233 114.762 90.5616C117.603 85.5999 120.652 80.7708 123.796 76.15C129.306 75.7334 134.988 75.5061 140.84 75.5251C146.691 75.544 152.202 75.7523 157.675 76.1879C160.819 80.7708 163.83 85.6567 166.671 90.4858C169.511 95.315 172.144 100.466 174.492 105.409L174.473 105.314ZM112.338 133.493C107.206 132.755 102.226 131.827 97.4911 130.728C98.8925 126.07 100.578 121.26 102.51 116.431C103.987 119.271 105.559 122.112 107.187 124.971C108.816 127.831 110.445 130.634 112.338 133.493ZM107.055 86.1491C105.407 88.9898 103.854 91.8304 102.396 94.709C100.414 89.823 98.6779 85.0128 97.1881 80.2784C101.979 79.1611 106.998 78.2331 112.206 77.5135C110.445 80.3163 108.759 83.2138 107.055 86.1491ZM140.915 155.935C137.506 152.299 134.155 148.359 130.859 144.136C134.117 144.288 137.431 144.364 140.783 144.364C144.135 144.364 147.562 144.364 150.877 144.155C147.619 148.359 144.286 152.299 140.915 155.935ZM182.919 178.66C181.482 179.447 179.86 179.833 178.223 179.777C174.776 179.777 164.966 178.262 149.513 164.438L147.297 162.411C152.851 156.443 158.006 150.117 162.732 143.474C170.801 142.704 178.81 141.4 186.707 139.572C187.54 143.246 188.203 146.844 188.6 150.31C190.494 164.589 188.316 175.497 182.919 178.584V178.66ZM192.918 82.7214C196.477 83.8077 199.978 85.0718 203.41 86.5089C216.837 92.1902 225.188 99.4813 225.169 105.712C225.15 111.942 216.818 119.271 203.372 124.858C200.134 126.183 196.706 127.414 193.07 128.513C190.693 120.668 187.802 112.987 184.415 105.522C187.748 98.0914 190.588 90.4493 192.918 82.6456V82.7214ZM149.362 46.5693C164.871 32.6879 174.568 31.1919 178.014 31.1919C179.613 31.1405 181.196 31.5199 182.597 32.2903C188.013 35.3771 190.172 46.2663 188.449 60.6968C188.008 64.3821 187.375 68.0419 186.555 71.6618C178.708 69.8378 170.75 68.5283 162.732 67.7417C157.957 61.0413 152.744 54.6643 147.127 48.6524C147.846 47.876 148.604 47.1753 149.38 46.4935L149.362 46.5693ZM140.745 55.0155C144.154 58.6515 147.506 62.5906 150.782 66.8137C147.543 66.6811 144.229 66.5864 140.877 66.5864C137.525 66.5864 134.098 66.5865 130.784 66.8137C134.022 62.6095 137.336 58.6515 140.745 55.0155ZM98.741 32.2903C100.178 31.5261 101.793 31.16 103.419 31.2297C106.831 31.3719 110.177 32.2165 113.247 33.7106C120.187 36.9827 126.576 41.3144 132.185 46.5504L134.401 48.5767C128.841 54.5446 123.679 60.8707 118.948 67.5144C110.886 68.2953 102.884 69.5985 94.9913 71.4156C94.1581 67.7416 93.4763 64.1435 93.0976 60.6779C91.128 46.3799 93.4006 35.4718 98.7221 32.366L98.741 32.2903ZM78.2504 86.2438C81.6209 84.8477 85.0592 83.6216 88.5525 82.5699C90.9199 90.4157 93.8048 98.096 97.1881 105.56C93.8647 112.943 91.0243 120.534 88.6851 128.286C85.1268 127.199 81.6252 125.935 78.1936 124.498C64.7478 118.817 56.4152 111.526 56.4152 105.295C56.4152 99.0646 64.8236 91.8304 78.2504 86.2438ZM140.745 88.1376C131.143 88.1271 123.352 95.9021 123.341 105.503C123.331 115.105 131.106 122.897 140.707 122.907C150.308 122.918 158.1 115.143 158.111 105.541C158.146 100.913 156.332 96.4615 153.071 93.176C149.811 89.8905 145.374 88.0429 140.745 88.0429V88.1376ZM140.745 88.1376C131.143 88.1271 123.352 95.9021 123.341 105.503C123.331 115.105 131.106 122.897 140.707 122.907C150.308 122.918 158.1 115.143 158.111 105.541C158.146 100.913 156.332 96.4615 153.071 93.176C149.811 89.8905 145.374 88.0429 140.745 88.0429V88.1376ZM140.745 88.1376C131.143 88.1271 123.352 95.9021 123.341 105.503C123.331 115.105 131.106 122.897 140.707 122.907C150.308 122.918 158.1 115.143 158.111 105.541C158.146 100.913 156.332 96.4615 153.071 93.176C149.811 89.8905 145.374 88.0429 140.745 88.0429V88.1376ZM234.202 105.636C234.202 92.5879 218.844 81.017 195.229 73.9532C200.91 49.9591 198.429 30.8699 187.123 24.4122C184.351 22.8725 181.223 22.0888 178.052 22.1396C167.504 22.1396 154.172 29.5064 140.707 42.2515C127.242 29.6011 113.948 22.2722 103.419 22.2722C100.199 22.2011 97.0194 22.9992 94.2149 24.5826C82.9659 31.0593 80.6365 50.0349 86.2421 73.9153C62.7404 80.9412 47.4577 92.4175 47.4197 105.409C47.3819 118.4 62.7972 130.028 86.4126 137.073C80.7312 161.086 83.1931 180.156 94.5179 186.614C97.2798 188.162 100.404 188.946 103.57 188.886C114.137 188.886 127.47 181.519 140.934 168.774C154.38 181.425 167.674 188.754 178.223 188.754C181.441 188.813 184.617 188.015 187.426 186.443C198.675 179.967 200.986 160.991 195.399 137.205C218.901 130.047 234.184 118.57 234.202 105.598V105.636ZM149.38 46.4935C164.89 32.6122 174.587 31.1161 178.033 31.1161C179.632 31.0648 181.215 31.4441 182.616 32.2145C188.032 35.3013 190.191 46.1905 188.468 60.6211C188.026 64.3063 187.394 67.9662 186.574 71.586C178.727 69.762 170.769 68.4525 162.75 67.6659C157.976 60.9656 152.763 54.5885 147.146 48.5767C147.846 47.876 148.604 47.1753 149.38 46.4935ZM102.434 116.336C103.911 119.176 105.483 122.017 107.111 124.877C108.74 127.736 110.445 130.634 112.338 133.493C107.206 132.755 102.226 131.827 97.4911 130.728C98.8168 125.918 100.502 121.184 102.434 116.336ZM97.1881 80.2784C101.979 79.1611 106.998 78.2331 112.206 77.5135C110.312 80.3163 108.683 83.1948 106.979 86.2059C105.275 89.217 103.778 91.8872 102.32 94.7658C100.389 89.842 98.6779 85.0128 97.1881 80.2784ZM107.055 105.541C109.403 100.58 111.985 95.618 114.8 90.6563C117.641 85.6946 120.69 80.8655 123.833 76.2447C129.344 75.8281 135.026 75.6008 140.877 75.6197C146.729 75.6387 152.24 75.847 157.713 76.2826C160.857 80.8655 163.868 85.7514 166.708 90.5805C169.549 95.4097 172.163 100.466 174.511 105.409C172.181 110.37 169.587 115.351 166.784 120.275C163.981 125.199 160.895 130.085 157.751 134.705C152.24 135.141 146.559 135.349 140.707 135.349C134.855 135.349 129.344 135.103 123.871 134.668C120.728 130.085 117.698 125.312 114.857 120.37C112.016 115.427 109.498 110.484 107.13 105.541H107.055ZM169.284 77.5703C174.435 78.29 179.416 79.2179 184.131 80.3163C182.73 84.9939 181.063 89.7851 179.132 94.6143C177.636 91.7736 176.083 88.933 174.435 86.0734C172.787 83.2138 171.045 80.3352 169.36 77.5703H169.284ZM174.511 124.763C176.139 121.897 177.692 119.038 179.169 116.184C181.063 121.108 182.957 125.956 184.283 130.691C179.51 131.808 174.492 132.717 169.284 133.437C171.115 130.634 172.882 127.743 174.587 124.763H174.511ZM140.745 55.0155C144.154 58.6515 147.506 62.5906 150.782 66.8137C147.543 66.6811 144.229 66.5864 140.877 66.5864C137.525 66.5864 134.098 66.5865 130.784 66.8137C134.022 62.6095 137.336 58.6515 140.745 55.0155ZM98.741 32.2903C100.178 31.5261 101.793 31.16 103.419 31.2297C106.831 31.3719 110.177 32.2165 113.247 33.7106C120.187 36.9827 126.576 41.3144 132.185 46.5504L134.401 48.5767C128.841 54.5446 123.679 60.8707 118.948 67.5144C110.886 68.2953 102.884 69.5985 94.9913 71.4156C94.1581 67.7416 93.4763 64.1435 93.0976 60.6779C91.128 46.3799 93.4006 35.4718 98.7221 32.366L98.741 32.2903ZM88.723 128.304C85.1647 127.218 81.6631 125.954 78.2315 124.517C64.7857 118.836 56.4531 111.545 56.4531 105.314C56.4531 99.0836 64.8236 91.8304 78.2504 86.2438C81.6209 84.8477 85.0592 83.6216 88.5525 82.5699C90.9199 90.4157 93.8048 98.096 97.1881 105.56C93.8768 112.95 91.0491 120.548 88.723 128.304ZM132.28 164.475C116.77 178.357 107.074 179.834 103.608 179.834C102.009 179.887 100.426 179.508 99.0251 178.736C93.6089 175.649 91.45 164.76 93.1733 150.329C93.6132 146.65 94.2453 142.996 95.0671 139.383C102.917 141.191 110.874 142.494 118.891 143.284C123.66 149.989 128.873 156.366 134.495 162.373L132.28 164.475ZM140.934 155.935C137.525 152.299 134.173 148.359 130.878 144.136C134.136 144.288 137.45 144.364 140.802 144.364C144.154 144.364 147.581 144.364 150.895 144.155C147.619 148.359 144.286 152.299 140.915 155.935H140.934ZM182.938 178.66C181.501 179.447 179.879 179.833 178.242 179.777C174.795 179.777 164.985 178.262 149.532 164.438L147.316 162.411C152.87 156.443 158.025 150.117 162.75 143.474C170.82 142.704 178.829 141.4 186.726 139.572C187.559 143.246 188.222 146.844 188.619 150.31C190.494 164.589 188.316 175.497 182.919 178.584L182.938 178.66ZM203.391 124.801C200.152 126.127 196.725 127.358 193.089 128.456C190.712 120.611 187.821 112.931 184.434 105.466C187.761 98.0839 190.601 90.4926 192.937 82.7403C196.495 83.8266 199.997 85.0907 203.429 86.5279C216.856 92.2092 225.207 99.5002 225.188 105.731C225.169 111.961 216.818 119.139 203.372 124.725L203.391 124.801ZM140.745 122.869C150.346 122.88 158.138 115.105 158.149 105.503C158.159 95.9021 150.384 88.1102 140.783 88.0997C131.181 88.0893 123.389 95.8642 123.379 105.466C123.369 110.078 125.194 114.505 128.452 117.77C131.71 121.035 136.133 122.869 140.745 122.869ZM9.46863 226.08V16.4583L0.397461 25.5484V235.113H231.532L240.584 226.08H9.46863Z" fill="#09D3AC"/>
</g>
<defs>
<clipPath id="clip0_23_106">
<rect width="256" height="235" fill="white" transform="translate(0.397461 0.702148)"/>
</clipPath>
</defs>
</svg>
