<svg width="512" height="149" viewBox="0 0 512 149" fill="none" xmlns="http://www.w3.org/2000/svg">
<g clip-path="url(#clip0_23_28)">
<path d="M3.332 116.129V59.148H74.476V55.815H3.332V3.832H78.974V0.5H0V119.461H79.64V116.129H3.332ZM143.787 33.822L114.297 72.643L85.472 33.823H81.14L112.297 75.143L78.14 119.46H82.139L114.295 77.64L146.618 119.46H150.783L116.461 75.141L147.784 33.821L143.787 33.822ZM160.781 148.785V95.47H161.114C163.114 103.245 167.057 109.493 172.944 114.214C178.831 118.934 186.328 121.295 195.436 121.295C201.323 121.295 206.544 120.101 211.098 117.713C215.652 115.325 219.456 112.076 222.511 107.966C225.565 103.856 227.898 99.08 229.509 93.637C231.119 88.195 231.925 82.474 231.925 76.477C231.925 70.034 231.091 64.091 229.425 58.649C227.759 53.206 225.343 48.485 222.178 44.487C219.012 40.488 215.18 37.377 210.681 35.157C206.183 32.935 201.101 31.824 195.436 31.824C191.104 31.824 187.078 32.463 183.357 33.74C179.636 35.018 176.332 36.822 173.444 39.155C170.539 41.5059 168.011 44.287 165.946 47.402C163.836 50.568 162.225 54.039 161.114 57.816H160.781V33.822H157.449V148.785H160.781ZM195.436 118.128C184.996 118.128 176.609 114.546 170.278 107.382C163.947 100.218 160.781 89.915 160.781 76.475C160.781 70.921 161.559 65.645 163.114 60.647C164.669 55.649 166.918 51.261 169.861 47.485C172.805 43.708 176.443 40.709 180.774 38.488C185.106 36.266 189.994 35.155 195.436 35.155C200.99 35.155 205.85 36.266 210.015 38.488C214.18 40.709 217.624 43.736 220.345 47.568C223.066 51.4 225.121 55.788 226.51 60.73C227.898 65.673 228.592 70.921 228.592 76.475C228.592 81.474 227.954 86.445 226.676 91.387C225.399 96.33 223.427 100.773 220.761 104.717C218.096 108.659 214.681 111.88 210.515 114.38C206.349 116.879 201.323 118.128 195.436 118.128ZM250.252 119.461V70.977C250.252 66.312 250.918 61.757 252.252 57.315C253.584 52.872 255.639 48.956 258.416 45.569C261.193 42.181 264.719 39.515 268.996 37.571C273.272 35.627 278.354 34.822 284.241 35.155V31.823C279.131 31.713 274.661 32.267 270.829 33.489C266.996 34.711 263.692 36.377 260.915 38.488C258.138 40.598 255.917 43.069 254.251 45.902C252.586 48.7305 251.351 51.7905 250.585 54.982H250.252V33.822H246.92V119.462L250.252 119.461ZM288.406 77.308H360.049C360.272 71.421 359.689 65.757 358.3 60.314C356.912 54.871 354.69 50.039 351.636 45.819C348.581 41.598 344.638 38.21 339.806 35.655C334.974 33.1 329.226 31.823 322.562 31.823C317.785 31.823 313.12 32.823 308.566 34.823C304.012 36.822 300.013 39.737 296.57 43.569C293.127 47.401 290.35 52.094 288.24 57.649C286.13 63.202 285.074 69.533 285.074 76.642C285.074 82.973 285.796 88.888 287.24 94.386C288.684 99.884 290.905 104.661 293.904 108.715C296.904 112.769 300.764 115.907 305.484 118.128C310.204 120.35 315.897 121.405 322.562 121.294C332.336 121.294 340.556 118.544 347.22 113.047C353.885 107.548 357.828 99.801 359.05 89.804H355.718C354.274 99.246 350.58 106.327 344.638 111.047C338.695 115.768 331.226 118.128 322.228 118.128C316.119 118.128 310.954 117.073 306.733 114.963C302.513 112.853 299.069 109.964 296.403 106.299C293.738 102.633 291.766 98.329 290.489 93.386C289.211 88.444 288.517 83.084 288.406 77.308ZM356.717 73.976H288.407C288.739 67.978 289.85 62.591 291.738 57.815C293.627 53.038 296.098 48.956 299.153 45.569C302.207 42.181 305.762 39.599 309.816 37.821C313.87 36.044 318.23 35.155 322.895 35.155C328.449 35.155 333.335 36.183 337.557 38.238C341.777 40.293 345.304 43.098 348.137 46.652C350.969 50.206 353.107 54.344 354.551 59.064C355.995 63.785 356.717 68.756 356.717 73.976ZM429.194 59.148H432.526C432.526 49.595 429.749 42.653 424.196 38.321C418.641 33.989 411.088 31.823 401.536 31.823C396.204 31.823 391.706 32.49 388.04 33.823C384.375 35.155 381.376 36.877 379.043 38.987C376.711 41.097 375.045 43.43 374.045 45.985C373.045 48.54 372.545 50.984 372.545 53.316C372.545 57.981 373.378 61.702 375.045 64.479C376.711 67.256 379.321 69.422 382.875 70.977C385.319 72.087 388.095 73.087 391.206 73.977C394.316 74.865 397.926 75.809 402.036 76.808C405.701 77.698 409.311 78.586 412.866 79.474C416.42 80.363 419.558 81.557 422.279 83.056C425.001 84.556 427.222 86.472 428.944 88.805C430.665 91.137 431.526 94.192 431.526 97.968C431.526 101.634 430.666 104.744 428.944 107.298C427.237 109.84 424.99 111.973 422.363 113.547C419.697 115.157 416.725 116.323 413.449 117.045C410.172 117.767 406.979 118.128 403.869 118.128C393.761 118.128 386.013 115.879 380.626 111.381C375.239 106.882 372.546 99.801 372.546 90.137H369.213C369.213 100.912 372.129 108.798 377.96 113.797C383.792 118.795 392.428 121.294 403.869 121.294C407.534 121.294 411.227 120.877 414.949 120.044C418.669 119.211 422.001 117.851 424.945 115.962C427.863 114.1 430.314 111.592 432.109 108.632C433.942 105.632 434.859 101.967 434.859 97.635C434.859 93.525 434.053 90.193 432.443 87.638C430.832 85.084 428.722 82.973 426.111 81.307C423.501 79.641 420.558 78.336 417.281 77.392C413.986 76.4424 410.681 75.5257 407.367 74.642C403.289 73.5721 399.207 72.517 395.121 71.477C391.622 70.588 388.374 69.533 385.375 68.311C382.487 67.089 380.182 65.34 378.46 63.063C376.738 60.786 375.878 57.537 375.878 53.316C375.878 52.539 376.1 51.15 376.544 49.151C376.988 47.151 378.044 45.124 379.71 43.069C381.376 41.015 383.93 39.182 387.374 37.571C390.817 35.961 395.538 35.155 401.536 35.155C405.646 35.155 409.394 35.6 412.782 36.488C416.17 37.377 419.086 38.793 421.529 40.737C423.973 42.681 425.861 45.152 427.194 48.151C428.527 51.151 429.194 54.816 429.194 59.148ZM506.335 59.148H509.667C509.667 49.595 506.891 42.653 501.337 38.321C495.783 33.989 488.23 31.823 478.677 31.823C473.346 31.823 468.847 32.49 465.182 33.823C461.516 35.155 458.517 36.877 456.185 38.987C453.852 41.097 452.186 43.43 451.186 45.985C450.186 48.54 449.686 50.984 449.686 53.316C449.686 57.981 450.52 61.702 452.186 64.479C453.852 67.256 456.463 69.422 460.016 70.977C462.461 72.087 465.237 73.087 468.348 73.977C471.458 74.865 475.068 75.809 479.178 76.808C482.843 77.698 486.453 78.586 490.008 79.474C493.562 80.363 496.699 81.557 499.421 83.056C502.142 84.556 504.364 86.472 506.085 88.805C507.807 91.137 508.668 94.192 508.668 97.968C508.668 101.634 507.807 104.744 506.085 107.298C504.378 109.84 502.131 111.973 499.505 113.547C496.838 115.157 493.867 116.323 490.59 117.045C487.314 117.767 484.12 118.128 481.01 118.128C470.902 118.128 463.155 115.879 457.768 111.381C452.38 106.882 449.687 99.801 449.687 90.137H446.355C446.355 100.912 449.27 108.798 455.102 113.797C460.933 118.795 469.569 121.294 481.01 121.294C484.676 121.294 488.369 120.877 492.09 120.044C495.81 119.211 499.143 117.851 502.087 115.962C505.005 114.1 507.456 111.592 509.251 108.632C511.084 105.632 512 101.967 512 97.635C512 93.525 511.195 90.193 509.584 87.638C507.974 85.084 505.864 82.973 503.253 81.307C500.643 79.641 497.699 78.336 494.423 77.392C491.128 76.4424 487.823 75.5257 484.509 74.642C480.431 73.5721 476.349 72.517 472.263 71.477C468.764 70.588 465.515 69.533 462.516 68.311C459.628 67.089 457.323 65.34 455.602 63.063C453.88 60.786 453.019 57.537 453.019 53.316C453.019 52.539 453.241 51.15 453.686 49.151C454.13 47.151 455.186 45.124 456.851 43.069C458.517 41.015 461.072 39.182 464.515 37.571C467.959 35.961 472.679 35.155 478.678 35.155C482.788 35.155 486.536 35.6 489.924 36.488C493.312 37.377 496.227 38.793 498.671 40.737C501.115 42.681 503.003 45.152 504.336 48.151C505.669 51.151 506.336 54.816 506.336 59.148H506.335Z" fill="black"/>
</g>
<defs>
<clipPath id="clip0_23_28">
<rect width="512" height="148.285" fill="white" transform="translate(0 0.5)"/>
</clipPath>
</defs>
</svg>
