<svg width="1668" height="2501" viewBox="0 0 1668 2501" fill="none" xmlns="http://www.w3.org/2000/svg">
<g clip-path="url(#clip0_23_86)">
<path d="M417.681 2500.74C647.681 2500.74 834.348 2314.08 834.348 2084.08V1667.41H417.681C187.681 1667.41 1.01465 1854.08 1.01465 2084.08C1.01465 2314.08 187.681 2500.74 417.681 2500.74Z" fill="#0ACF83"/>
<path d="M1.01465 1250.74C1.01465 1020.74 187.681 834.078 417.681 834.078H834.348V1667.41H417.681C187.681 1667.41 1.01465 1480.74 1.01465 1250.74Z" fill="#A259FF"/>
<path d="M1.01465 417.411C1.01465 187.411 187.681 0.744629 417.681 0.744629H834.348V834.078H417.681C187.681 834.078 1.01465 647.411 1.01465 417.411Z" fill="#F24E1E"/>
<path d="M834.348 0.744629H1251.01C1481.01 0.744629 1667.68 187.411 1667.68 417.411C1667.68 647.411 1481.01 834.078 1251.01 834.078H834.348V0.744629Z" fill="#FF7262"/>
<path d="M1667.68 1250.74C1667.68 1480.74 1481.01 1667.41 1251.01 1667.41C1021.01 1667.41 834.348 1480.74 834.348 1250.74C834.348 1020.74 1021.01 834.078 1251.01 834.078C1481.01 834.078 1667.68 1020.74 1667.68 1250.74Z" fill="#1ABCFE"/>
</g>
<defs>
<clipPath id="clip0_23_86">
<rect width="1667" height="2500" fill="white" transform="translate(0.847656 0.744629)"/>
</clipPath>
</defs>
</svg>
