<svg width="1792" height="2049" viewBox="0 0 1792 2049" fill="none" xmlns="http://www.w3.org/2000/svg">
<path d="M1600 128.5H192C86 128.5 0 214.5 0 320.5V1728.5C0 1834.5 86 1920.5 192 1920.5H1600C1706 1920.5 1792 1834.5 1792 1728.5V320.5C1792 214.5 1706 128.5 1600 128.5ZM1109.2 1663.3C1075.6 1669.3 1063.2 1648.5 1063.2 1631.3C1063.2 1609.7 1064 1499.3 1064 1410.1C1064 1347.7 1043.2 1308.1 1018.8 1287.3C1166.8 1270.9 1322.8 1250.5 1322.8 994.9C1322.8 922.1 1296.8 885.7 1254.4 838.9C1261.2 821.7 1284 750.9 1247.6 658.9C1192 641.7 1064.8 730.5 1064.8 730.5C1012 715.7 954.8 708.1 898.4 708.1C842 708.1 784.8 715.7 732 730.5C732 730.5 604.8 641.7 549.2 658.9C512.8 750.5 535.2 821.3 542.4 838.9C500 885.7 480 922.1 480 994.9C480 1249.3 629.2 1270.9 777.2 1287.3C758 1304.5 740.8 1334.1 734.8 1376.5C696.8 1393.7 599.6 1423.3 541.6 1320.9C505.2 1257.7 439.6 1252.5 439.6 1252.5C374.8 1251.7 435.2 1293.3 435.2 1293.3C478.4 1313.3 508.8 1390.1 508.8 1390.1C547.6 1508.9 733.2 1468.9 733.2 1468.9C733.2 1524.5 734 1614.9 734 1631.3C734 1648.5 722 1669.3 688 1663.3C424 1574.9 239.2 1323.7 239.2 1030.1C239.2 662.9 520 384.1 887.2 384.1C1254.4 384.1 1552 662.9 1552 1030.1C1552.4 1323.7 1373.2 1575.3 1109.2 1663.3ZM716.8 1418.9C709.2 1420.5 702 1417.3 701.2 1412.1C700.4 1406.1 705.6 1400.9 713.2 1399.3C720.8 1398.5 728 1401.7 728.8 1406.9C730 1412.1 724.8 1417.3 716.8 1418.9ZM678.8 1415.3C678.8 1420.5 672.8 1424.9 664.8 1424.9C656 1425.7 650 1421.3 650 1415.3C650 1410.1 656 1405.7 664 1405.7C671.6 1404.9 678.8 1409.3 678.8 1415.3ZM624 1410.9C622.4 1416.1 614.4 1418.5 607.6 1416.1C600 1414.5 594.8 1408.5 596.4 1403.3C598 1398.1 606 1395.7 612.8 1397.3C620.8 1399.7 626 1405.7 624 1410.9ZM574.8 1389.3C571.2 1393.7 563.6 1392.9 557.6 1386.9C551.6 1381.7 550 1374.1 554 1370.5C557.6 1366.1 565.2 1366.9 571.2 1372.9C576.4 1378.1 578.4 1386.1 574.8 1389.3ZM538.4 1352.9C534.8 1355.3 528 1352.9 523.6 1346.9C519.2 1340.9 519.2 1334.1 523.6 1331.3C528 1327.7 534.8 1330.5 538.4 1336.5C542.8 1342.5 542.8 1349.7 538.4 1352.9ZM512.4 1314.1C508.8 1317.7 502.8 1315.7 498.4 1311.7C494 1306.5 493.2 1300.5 496.8 1297.7C500.4 1294.1 506.4 1296.1 510.8 1300.1C515.2 1305.3 516 1311.3 512.4 1314.1ZM485.6 1284.5C484 1288.1 478.8 1288.9 474.4 1286.1C469.2 1283.7 466.8 1279.3 468.4 1275.7C470 1273.3 474.4 1272.1 479.6 1274.1C484.8 1276.9 487.2 1281.3 485.6 1284.5Z" fill="black"/>
</svg>
