<svg width="2501" height="2501" viewBox="0 0 2501 2501" fill="none" xmlns="http://www.w3.org/2000/svg">
<g clip-path="url(#clip0_23_84)">
<path d="M0.298828 1250.19C0.298828 905.143 122.369 610.547 366.512 366.406C610.65 122.266 905.246 0.195801 1250.3 0.195801C1595.35 0.195801 1889.95 122.266 2134.09 366.406C2378.23 610.547 2500.3 905.143 2500.3 1250.19C2500.3 1595.25 2378.23 1889.84 2134.09 2133.98C1889.95 2378.12 1595.35 2500.2 1250.3 2500.2C905.246 2500.2 610.65 2378.13 366.512 2133.98C122.369 1889.84 0.298828 1595.24 0.298828 1250.19ZM137.017 1250.19C137.017 1556.19 246.067 1818.23 464.166 2036.33C682.264 2254.43 944.308 2363.48 1250.3 2363.48C1556.29 2363.48 1818.33 2254.43 2036.43 2036.33C2254.53 1818.23 2363.58 1556.19 2363.58 1250.19C2363.58 944.205 2254.53 682.161 2036.43 464.063C1818.33 245.964 1556.29 136.914 1250.3 136.914C944.308 136.914 682.267 245.964 464.166 464.063C246.067 682.161 137.017 944.205 137.017 1250.19ZM488.582 1518.75C482.072 1512.24 482.072 1505.73 488.582 1499.22C501.6 1486.2 517.879 1481.31 537.408 1484.57C556.939 1487.82 568.332 1491.08 571.587 1494.33C594.374 1504.1 619.603 1526.07 647.27 1560.25C674.936 1594.43 696.91 1618.03 713.189 1631.05C791.314 1696.16 871.064 1701.04 952.444 1645.7C958.954 1622.92 969.535 1603.38 984.181 1587.11C998.827 1570.83 1012.67 1559.44 1025.69 1552.93C1038.71 1546.42 1061.5 1536.65 1094.05 1523.63C986.623 1513.86 899.548 1495.15 832.816 1467.48C766.085 1439.81 713.186 1404.81 674.124 1362.5C622.041 1303.9 590.301 1227.41 578.908 1133C567.512 1038.6 574.838 952.341 600.882 874.216C620.413 825.388 648.082 781.445 683.887 742.38C657.845 661 662.728 568.227 698.535 464.06C802.702 470.57 897.103 506.378 981.738 571.482C1144.5 529.164 1313.77 527.537 1489.55 566.599C1512.33 550.323 1547.33 529.979 1594.53 505.563C1641.73 481.149 1701.14 467.313 1772.75 464.058C1785.77 499.865 1794.72 542.182 1799.61 591.011C1804.49 639.839 1802.05 685.411 1792.28 727.729C1867.15 805.854 1906.21 910.021 1909.47 1040.23C1909.47 1144.4 1891.57 1230.66 1855.76 1299.02C1819.95 1367.38 1756.48 1424.34 1665.33 1469.91C1603.48 1499.21 1522.1 1517.11 1421.19 1523.62C1466.77 1546.41 1500.13 1570.01 1521.29 1594.43C1542.45 1618.84 1556.28 1657.09 1562.8 1709.17V1862.98L1567.68 2011.91C1577.44 2028.19 1588.84 2042.02 1601.86 2053.42C1614.88 2064.81 1626.27 2072.95 1636.04 2077.83C1645.8 2082.71 1649.06 2090.04 1645.8 2099.8C1642.55 2109.57 1629.53 2114.45 1606.74 2114.45C1551.4 2114.45 1507.46 2094.92 1474.91 2055.86C1465.14 2039.58 1460.26 2020.05 1460.26 1997.26V1762.89C1460.26 1736.85 1453.75 1718.13 1440.73 1706.73C1427.71 1695.34 1414.69 1688.01 1401.66 1684.76V1992.38C1401.66 2047.71 1408.18 2083.52 1421.2 2099.8C1434.22 2116.07 1442.35 2132.35 1445.61 2148.63C1448.87 2151.88 1446.42 2154.32 1438.29 2155.95C1430.15 2157.57 1416.32 2155.14 1396.78 2148.63C1354.46 2138.86 1325.17 2116.89 1308.89 2082.71C1292.62 2048.53 1284.48 2011.91 1284.48 1972.84V1670.12H1221V1972.85C1221 2011.91 1212.86 2049.35 1196.58 2085.15C1173.8 2130.73 1131.48 2155.14 1069.63 2158.4C1059.87 2155.14 1054.99 2151.89 1054.99 2148.63C1058.24 2145.38 1068.01 2129.1 1084.28 2099.81C1087.54 2093.3 1091.61 2080.27 1096.49 2060.74C1101.38 2041.21 1103.82 2018.43 1103.82 1992.38V1684.76C1090.8 1688.02 1078.59 1695.34 1067.19 1706.74C1055.8 1718.13 1050.1 1736.85 1050.1 1762.89V1997.27C1050.1 2020.05 1045.22 2039.58 1035.45 2055.86C1006.16 2094.92 962.212 2114.46 903.621 2114.46C880.834 2114.46 867.814 2109.57 864.558 2099.81C861.301 2093.3 862.116 2087.6 867.001 2082.72C871.886 2077.83 879.209 2072.14 888.975 2065.63C898.74 2059.12 905.251 2054.23 908.506 2050.98C921.527 2041.21 931.29 2028.19 937.803 2011.92C947.569 1998.89 950.009 1964.71 945.126 1909.38C940.243 1854.04 939.428 1818.23 942.683 1801.95C858.045 1831.25 771.785 1816.6 683.892 1758.01C657.85 1731.97 631.809 1694.53 605.767 1645.7C586.236 1609.89 547.173 1567.58 488.582 1518.75Z" fill="black"/>
</g>
<defs>
<clipPath id="clip0_23_84">
<rect width="2500" height="2500" fill="white" transform="translate(0.298828 0.195801)"/>
</clipPath>
</defs>
</svg>
