<svg width="24" height="25" viewBox="0 0 24 25" fill="none" xmlns="http://www.w3.org/2000/svg">
<g clip-path="url(#clip0_23_26)">
<path d="M14.014 7.86994C13.7444 7.86638 13.4748 7.87472 13.206 7.89494C12.988 7.91194 12.772 7.96694 12.556 8.00494C12.785 8.12294 13.012 8.21794 13.236 8.31994C13.461 8.42294 13.672 8.55194 13.865 8.70694C13.612 8.60994 13.366 8.49894 13.113 8.40894C12.5878 8.2124 12.0435 8.0713 11.489 7.98794C11.216 7.95094 10.943 7.91494 10.67 7.99294C10.394 8.07094 10.316 8.17294 10.29 8.45094C10.25 8.91094 10.388 9.33794 10.571 9.74894C10.843 10.3555 11.248 10.8931 11.756 11.3219C12.147 11.6569 12.581 11.9199 13.061 12.1089C13.197 12.1619 13.335 12.2119 13.472 12.2639L13.463 12.2959C13.2 12.2239 12.931 12.1699 12.676 12.0759C12.2296 11.905 11.8161 11.658 11.454 11.3459C11.0434 11.0074 10.7015 10.5933 10.447 10.1259C10.1737 9.63308 10.026 9.08045 10.017 8.51694L10.005 8.52194C4.891 7.98794 0.402 12.0949 0.035 12.4399L0.001 12.4539C-0.001 12.4589 0.001 12.4639 0.004 12.4699L0 12.4739L0.005 12.4719C0.009 12.4799 0.015 12.4879 0.018 12.4959C0.105 12.4769 0.191 12.4539 0.278 12.4419L0.347 12.4319C0.671 12.3169 1.002 12.2269 1.344 12.1789C1.828 12.1099 2.329 12.0199 2.824 12.0229C3.292 12.0249 3.767 12.0969 4.226 12.1759C4.355 12.1979 4.481 12.2279 4.606 12.2629C4.941 12.3379 5.256 12.4729 5.539 12.6539L5.599 12.6839C6.002 12.8739 6.357 13.1539 6.637 13.4949C6.689 13.5519 6.778 13.6109 6.824 13.6729C6.92 13.7869 6.966 13.9089 7.127 14.0359V12.2989H9.137L10.076 14.0319L11.018 12.2989H13.088V15.6559L13.431 15.4299C13.431 15.4299 13.806 14.4299 15.547 14.2899L17.543 14.2259C17.235 13.5889 17.236 13.5889 17.384 13.3959C17.531 13.2059 18.664 13.0819 18.864 12.9629L21.776 12.3749C21.783 12.3529 21.791 12.3869 21.806 12.3819C21.878 12.3599 21.953 12.3449 22.056 12.3209L22.716 12.1609C22.758 12.1359 22.809 12.1269 22.856 12.1109C23.164 12.0039 23.433 11.8659 23.582 11.5379C23.727 11.2189 23.921 10.9219 23.992 10.5709C24.014 10.4599 23.995 10.3629 23.914 10.2829C23.817 10.1869 23.692 10.1449 23.564 10.1119C23.143 9.93894 22.724 9.76194 22.3 9.59894C22.039 9.49794 21.771 9.41394 21.505 9.32894C21.2414 9.24435 20.9768 9.16334 20.711 9.08594C20.467 9.01394 20.221 8.94794 19.975 8.88094C19.735 8.81494 19.495 8.74794 19.255 8.68894C18.973 8.61894 18.69 8.55894 18.408 8.49394C18.193 8.44394 17.98 8.39194 17.764 8.34794C17.53 8.30094 17.294 8.25894 17.058 8.21794C16.756 8.16494 16.456 8.10594 16.153 8.06494C15.787 8.01494 15.419 7.98294 15.052 7.93994C14.707 7.89994 14.361 7.87494 14.014 7.86994ZM10.711 8.63694C10.7299 8.6358 10.7489 8.63818 10.767 8.64394C11.187 8.77394 11.597 8.92094 11.983 9.13494C12.348 9.33794 12.678 9.58494 12.962 9.89094C12.974 9.90394 12.982 9.91894 12.998 9.94094L12.353 9.64794L12.332 9.67394L12.702 10.2249L12.68 10.2469C12.4804 10.099 12.2549 9.98973 12.015 9.92494L11.995 9.94494L12.628 10.6849L12.212 10.5489L12.195 10.5689C12.358 10.8389 12.571 11.0739 12.775 11.3439C12.421 11.1439 12.11 10.9239 11.819 10.6749C11.4159 10.3418 11.0741 9.94077 10.809 9.48994C10.702 9.29994 10.608 9.10494 10.587 8.88394C10.5826 8.83367 10.5863 8.78302 10.598 8.73394C10.6036 8.70764 10.6177 8.68391 10.6382 8.66639C10.6586 8.64887 10.6842 8.63853 10.711 8.63694ZM16.135 9.30494C16.289 9.30694 16.446 9.29894 16.599 9.31994C16.877 9.35694 17.154 9.41194 17.431 9.45994C17.589 9.48694 17.748 9.51194 17.905 9.54594C18.202 9.60994 18.499 9.67894 18.795 9.74594C18.991 9.79194 19.187 9.83794 19.382 9.88594L19.053 10.0469C18.688 10.0739 18.322 10.1019 17.956 10.1039C17.729 10.1028 17.5028 10.078 17.281 10.0299C17.001 9.97194 16.767 9.83394 16.629 9.56394C16.609 9.52394 16.539 9.50094 16.489 9.48594C16.309 9.43194 16.127 9.38594 15.945 9.31794C16.008 9.31294 16.071 9.30394 16.135 9.30494ZM19.358 11.9399L19.363 11.9599C19.283 11.9819 19.203 12.0019 19.124 12.0269C18.669 12.1669 18.208 12.2929 17.761 12.4549C17.481 12.5559 17.217 12.7049 16.951 12.8429C16.718 12.9619 16.636 13.1649 16.664 13.4179C16.683 13.5799 16.704 13.7419 16.719 13.9059C16.574 13.6956 16.4757 13.4565 16.431 13.2049C16.396 13.0359 16.489 12.9319 16.611 12.8399C16.849 12.6619 17.107 12.5219 17.388 12.4299C17.738 12.3129 18.09 12.1969 18.447 12.1049C18.698 12.0399 18.96 12.0149 19.217 11.9719C19.265 11.9639 19.311 11.9509 19.358 11.9399ZM9.141 14.4549V17.1309H11.01L11.074 17.0649V14.4549L10.104 15.9499L9.141 14.4549Z" fill="black"/>
</g>
<defs>
<clipPath id="clip0_23_26">
<rect width="24" height="24" fill="white" transform="translate(0 0.5)"/>
</clipPath>
</defs>
</svg>
