<svg width="121" height="61" viewBox="0 0 121 61" fill="none" xmlns="http://www.w3.org/2000/svg">
<path d="M16.772 5.9104L17.862 7.9604C18.0993 8.33019 18.3755 8.67348 18.686 8.9844C19.599 9.8974 20.468 10.8544 21.246 11.8794C23.094 14.3064 24.341 17.0014 25.232 19.9194C25.766 21.7014 26.056 23.5274 26.078 25.3754C26.168 30.8984 24.274 35.6414 20.444 39.5834C19.8234 40.2083 19.1532 40.7818 18.44 41.2984C18.06 41.2984 17.883 40.9984 17.727 40.7414C17.427 40.2414 17.259 39.6944 17.17 39.1384C17.036 38.4704 16.947 37.8024 16.992 37.1114V36.7994C16.97 36.7324 16.636 6.0674 16.769 5.9114L16.772 5.9104Z" fill="#599636"/>
<path d="M16.772 5.84431C16.727 5.75431 16.682 5.82231 16.638 5.86631C16.66 6.31131 16.504 6.71231 16.258 7.09131C15.991 7.47131 15.634 7.75931 15.278 8.07131C13.296 9.78631 11.738 11.8573 10.49 14.1733C8.84203 17.2913 7.97403 20.6313 7.73003 24.1503C7.62003 25.4203 8.13003 29.8963 8.53203 31.1873C9.62203 34.6173 11.582 37.4893 14.132 39.9833C14.756 40.5833 15.424 41.1413 16.114 41.6753C16.314 41.6753 16.337 41.4973 16.381 41.3633C16.4688 41.0789 16.5356 40.7885 16.581 40.4943C16.781 39.3813 16.893 38.2673 17.026 37.1543L16.781 5.84431H16.772Z" fill="#6CAC48"/>
<path d="M17.865 42.6563C17.91 42.1443 18.165 41.7213 18.422 41.2983C18.155 41.1883 17.954 40.9643 17.798 40.7183C17.664 40.4953 17.553 40.2183 17.464 39.9833C17.152 39.0483 17.084 38.0683 16.996 37.1103V36.5303C16.886 36.6203 16.862 37.3763 16.862 37.4883C16.795 38.5123 16.662 39.5153 16.462 40.4943C16.395 40.8943 16.352 41.2963 16.106 41.6523C16.106 41.6973 16.106 41.7423 16.128 41.8083C16.528 42.9883 16.64 44.1913 16.708 45.4163V45.8613C16.708 46.3953 16.686 46.2843 17.131 46.4613C17.309 46.5283 17.511 46.5513 17.688 46.6843C17.822 46.6843 17.844 46.5743 17.844 46.4843L17.777 45.7493V43.6993C17.755 43.3433 17.822 42.9863 17.867 42.6523L17.865 42.6563Z" fill="#C2BFBF"/>
<path d="M34.7757 33.3428V35.4637C34.7733 35.5477 34.7781 35.6317 34.79 35.7149C34.8176 35.9661 34.9718 36.1192 35.1984 36.1897C35.41 36.2454 35.6248 36.2873 35.8418 36.3153C35.9674 36.3296 36.0092 36.3847 36.0235 36.5195C36.0378 36.9944 35.9959 37.0505 35.5354 37.0219C34.4612 36.9658 33.386 36.9525 32.3117 37.0219H32.2096C31.8747 37.0362 31.8471 37.0076 31.8471 36.6727C31.8471 36.6165 31.8614 36.5471 31.8614 36.4909C31.8614 36.3888 31.9309 36.3378 32.0289 36.3378C32.2535 36.3102 32.4618 36.254 32.6722 36.2122C32.9652 36.1427 33.1317 35.961 33.1603 35.6679C33.2011 35.3473 33.2011 35.0123 33.2011 34.6907L33.2154 30.9513C33.22 30.8429 33.1937 30.7354 33.1394 30.6413C33.0852 30.5473 33.0053 30.4707 32.9091 30.4204C32.6566 30.2801 32.3895 30.1678 32.1126 30.0854C32.0289 30.0579 31.9451 30.0446 31.8757 30.0017C31.6715 29.9037 31.6664 29.7229 31.8614 29.6106C31.9308 29.5698 32.0146 29.5412 32.0983 29.5269C32.9452 29.4019 33.7772 29.1915 34.5817 28.8989C34.7492 28.8427 34.791 28.858 34.8063 29.0245C34.8206 29.1266 34.8063 29.2491 34.792 29.3451C34.7645 29.5269 34.7645 29.7076 34.7645 29.8761C34.7645 29.9455 34.7788 30.016 34.8482 30.0579C34.9176 30.0997 34.9881 30.0579 35.0524 30.017C35.3455 29.7924 35.6386 29.5841 35.9592 29.4043C36.4187 29.1531 36.9088 28.9295 37.4398 28.8601C38.0831 28.7763 38.6396 28.9438 39.1288 29.3625C39.331 29.5435 39.5091 29.7497 39.6587 29.9762C39.7986 30.1804 39.8119 30.1855 39.9936 30.0456C40.5246 29.6545 41.0822 29.3063 41.6826 29.0551C42.3106 28.7896 42.9529 28.7488 43.5941 28.9714C44.2497 29.2083 44.6969 29.6688 44.9624 30.2968C45.1871 30.7992 45.2831 31.3179 45.2831 31.8591V35.5985C45.2831 35.8497 45.3852 36.0069 45.6323 36.1295C45.8978 36.2316 46.1908 36.2826 46.4696 36.3388C46.6514 36.3796 46.6514 36.3796 46.6514 36.5634C46.6238 37.0229 46.5819 37.0515 46.1347 37.0229C45.0147 36.9602 43.8921 36.9602 42.7721 37.0229C42.5475 37.0372 42.5475 37.0372 42.5352 36.8136V36.7442C42.5209 36.3664 42.5209 36.3664 42.8844 36.2847L43.2469 36.1866C43.3698 36.1577 43.4793 36.0883 43.5578 35.9896C43.6363 35.8909 43.6794 35.7685 43.6799 35.6424L43.7207 34.5957L43.6932 31.8612C43.6825 31.617 43.6307 31.3764 43.54 31.1494C43.1908 30.2978 42.4239 29.9915 41.6836 30.0752C41.125 30.1314 40.637 30.354 40.1764 30.6756C40.0784 30.7451 40.009 30.8288 40.0233 30.9687C40.1489 31.8622 40.0641 32.7557 40.0794 33.6481V35.5883C40.0794 35.9375 40.2193 36.105 40.5542 36.1887L41.1976 36.3286C41.2956 36.3429 41.3507 36.3847 41.3507 36.496V36.5982C41.3364 36.9892 41.3099 37.0066 40.9178 37.0025C39.8017 36.9464 38.6846 36.9617 37.5828 37.0025C37.205 37.0168 37.1743 36.9749 37.1917 36.5941C37.206 36.3694 37.2325 36.3572 37.4429 36.3153L37.9024 36.2316C38.3108 36.1478 38.4609 35.9947 38.4885 35.5617L38.5294 34.6264L38.5018 31.8213C38.4742 31.4721 38.3997 31.1372 38.2087 30.8165C37.93 30.2999 37.4939 30.0354 36.8966 30.0068C36.2962 29.966 35.7662 30.1886 35.2628 30.4663C34.9136 30.6705 34.7604 30.9125 34.788 31.3179V33.3551L34.7757 33.3428ZM61.0666 33.4276V35.3953C61.0688 35.5352 61.078 35.6749 61.0942 35.8139C61.1001 35.9066 61.136 35.9948 61.1964 36.0653C61.2568 36.1359 61.3384 36.1849 61.4291 36.205C61.6699 36.2752 61.9179 36.3174 62.1684 36.3306C62.3083 36.3449 62.3358 36.4001 62.3501 36.5124V36.6104C62.3358 37.0985 62.2807 37.1547 61.8059 37.1271C60.7439 37.0577 59.685 37.0709 58.6241 37.1271L58.2156 37.1414C58.1319 37.1414 58.1135 37.1005 58.09 37.0434C58.0492 36.8501 58.0492 36.6505 58.09 36.4572C58.1043 36.3735 58.1594 36.3551 58.2432 36.3316C58.4474 36.3041 58.621 36.2622 58.815 36.2295C59.1642 36.1458 59.2898 36.0049 59.3031 35.6434L59.3439 34.4712V31.0381C59.3439 30.7869 59.2459 30.6338 59.0233 30.5214C58.7721 30.3816 58.5066 30.2845 58.2268 30.1865C58.1431 30.1589 58.0594 30.1304 57.9899 30.0885C57.8082 29.9629 57.7857 29.7822 57.9624 29.6423C58.0416 29.5771 58.1389 29.5379 58.2411 29.5299C59.1346 29.39 59.9995 29.195 60.8368 28.8601C60.9349 28.8192 60.9767 28.8458 61.0186 28.9295C61.0605 29.0132 61.0748 29.1113 61.0594 29.2083L61.0186 29.8638C61.0186 29.9476 60.9777 30.0681 61.0462 30.1007C61.1299 30.1569 61.1861 30.0313 61.2555 29.9986C61.6675 29.653 62.1227 29.3623 62.6095 29.1337C63.0425 28.9295 63.4877 28.7988 63.9911 28.8274C64.9264 28.8836 65.5963 29.3584 66.0282 30.1814C66.2529 30.6144 66.3489 31.0882 66.3907 31.5773L66.4316 32.5984L66.4459 35.6822C66.4602 35.9191 66.5439 36.0733 66.7808 36.157C67.0264 36.2389 67.2785 36.2997 67.5344 36.3388C67.759 36.3664 67.7713 36.4082 67.7856 36.6176V36.687C67.758 37.1618 67.7294 37.1751 67.2546 37.1465C66.2135 37.0907 65.1701 37.0907 64.1289 37.1465C63.989 37.1608 63.8502 37.1465 63.7205 37.1608C63.6367 37.1608 63.5806 37.1465 63.5673 37.0628C63.5397 36.881 63.5112 36.7003 63.553 36.5042C63.5673 36.4205 63.6092 36.3786 63.7062 36.3643L64.3495 36.2622C64.5741 36.206 64.6987 36.058 64.7273 35.8538L64.7549 35.4627L64.7406 32.5463C64.7406 32.2114 64.7263 31.8765 64.6569 31.5415C64.4894 30.8268 63.9451 30.3162 63.2069 30.2447C62.5635 30.1753 61.9815 30.3427 61.4485 30.6909C61.183 30.8584 61.0707 31.0953 61.0707 31.3884V33.496C61.0707 33.4551 61.0707 33.4551 61.085 33.4551L61.0666 33.4276Z" fill="#47474A"/>
<path d="M101.938 29.4778C101.785 28.4587 101.407 27.5519 100.752 26.7565C100.181 26.0538 99.4413 25.5066 98.6023 25.1656C97.7242 24.8031 96.7878 24.6908 95.8392 24.6632C95.4481 24.6489 90.1178 24.7326 89.7267 24.6632C89.6287 24.6489 89.5593 24.6775 89.5021 24.7612C89.4326 24.8633 89.3622 24.9705 89.3203 25.0818C89.1528 25.4597 89.1528 25.4311 89.5572 25.4862C89.8921 25.5424 90.2128 25.5699 90.5344 25.668C90.8275 25.766 91.0368 25.9335 91.1063 26.2541C91.1338 26.4073 91.1624 31.3189 91.1624 33.6082L91.1063 35.242C91.092 35.3676 91.0787 35.4932 91.0368 35.6045C90.9807 35.772 90.8837 35.9109 90.7162 35.9823C90.5319 36.069 90.3332 36.121 90.1301 36.1355C89.7522 36.1764 89.6971 36.1917 89.5715 36.6103L89.5307 36.7635C89.5031 36.9453 89.5164 36.9728 89.6981 36.9728L93.8704 37.0137L95.5042 36.9861L96.6346 36.8462C97.9182 36.6093 99.0629 36.0783 100.039 35.2277C100.597 34.7352 101.052 34.1377 101.379 33.4694C101.77 32.6882 101.937 31.8356 101.979 30.9717C102.049 30.4836 102.02 29.9812 101.938 29.4788V29.4778ZM99.9145 31.4588C99.8583 32.3523 99.6776 33.2171 99.217 33.9983C98.6309 35.0174 97.7936 35.7291 96.6356 35.9793C96.1332 36.0814 95.6309 36.1325 95.104 36.063C94.7261 36.0222 94.3647 35.9793 94.0154 35.8537C93.3875 35.629 93.1638 35.241 93.1505 34.6283L93.1363 26.2143C93.1363 25.7119 93.3609 25.6016 93.7224 25.5863C94.2666 25.5454 94.8252 25.5587 95.3694 25.6139C95.9488 25.6699 96.5174 25.8074 97.0584 26.0223C97.4603 26.1898 97.8326 26.4208 98.1612 26.7065C98.9148 27.3498 99.4172 28.1565 99.6929 29.1061C99.9175 29.874 99.9584 30.6551 99.9175 31.4363L99.9145 31.4588ZM113.536 32.8271C113.536 32.7433 113.536 32.6739 113.522 32.5902C113.396 31.8223 112.991 31.2362 112.364 30.7899C111.96 30.4969 111.499 30.3018 111.024 30.1619C110.941 30.1344 110.871 30.1058 110.787 30.0925C110.802 30.0231 110.844 30.0088 110.885 29.9945C111.164 29.8546 111.43 29.7014 111.667 29.4921C112.1 29.1296 112.381 28.6823 112.531 28.1381C112.615 27.845 112.615 27.5519 112.588 27.2446C112.565 26.885 112.461 26.5352 112.285 26.2211C112.109 25.907 111.864 25.6366 111.569 25.4301C110.925 24.9552 110.173 24.7602 109.392 24.7459C107.884 24.7183 106.364 24.7459 104.858 24.7459C104.425 24.7459 103.993 24.7735 103.546 24.7051C103.462 24.6908 103.341 24.6642 103.28 24.7612C103.178 24.943 103.055 25.1237 103.015 25.333C103 25.4311 103.029 25.4862 103.14 25.5005L104.103 25.6404C104.481 25.6966 104.746 25.9059 104.773 26.2408C104.8 26.4723 104.814 26.7052 104.814 26.9383L104.786 29.5472L104.772 34.71C104.772 35.0164 104.731 35.3104 104.674 35.6168C104.66 35.714 104.619 35.8053 104.554 35.8795C104.49 35.9538 104.406 36.0079 104.311 36.0354C104.033 36.1192 103.767 36.2029 103.474 36.2029C103.396 36.1955 103.317 36.2149 103.251 36.2579C103.186 36.301 103.136 36.3651 103.112 36.4398C103.055 36.5654 103.009 36.7053 102.986 36.8309C102.958 36.9984 103 37.0555 103.168 37.0351C103.293 37.0208 107.899 37.1332 108.764 37.0494C109.28 36.9933 109.785 36.9238 110.298 36.7707C111.176 36.4919 111.987 36.0865 112.628 35.4023C113.159 34.8438 113.466 34.1739 113.493 33.3928C113.534 33.211 113.534 33.0303 113.534 32.8342L113.536 32.8271ZM106.768 27.1088L106.809 25.9927C106.809 25.7834 106.893 25.6864 107.102 25.6435C107.437 25.574 107.772 25.6026 108.107 25.6159C108.442 25.6435 108.763 25.6853 109.097 25.7834C109.71 25.9651 110.186 26.3143 110.466 26.8994C110.593 27.1655 110.659 27.4563 110.661 27.7511C110.675 28.1422 110.646 28.519 110.493 28.8947C110.256 29.4114 109.881 29.7463 109.335 29.8444C108.79 29.9424 107.242 29.9005 107.005 29.9005C106.796 29.9005 106.781 29.873 106.781 29.6636V28.3494C106.748 27.9408 106.743 27.5304 106.766 27.121L106.768 27.1088ZM111.302 34.6161C111.065 35.2441 110.632 35.6781 110.018 35.9129C109.684 36.0385 109.349 36.1171 108.997 36.0947C108.564 36.0804 108.132 36.0947 107.701 36.0109C107.114 35.8853 106.849 35.3268 106.807 34.9224C106.738 34.2107 106.779 33.4847 106.766 32.9547V31.1126C106.766 30.888 106.794 30.8195 107.032 30.8195L108.344 30.8338L109.237 30.936C109.865 31.0758 110.437 31.3138 110.884 31.8008C111.247 32.1919 111.443 32.6657 111.485 33.1824C111.526 33.6705 111.499 34.1453 111.317 34.6059L111.302 34.6161Z" fill="#C2BFBF"/>
<path d="M75.8454 30.4122L76.2079 30.4684C76.599 30.4827 77.0595 30.3428 77.1984 29.7985C77.275 29.5385 77.275 29.262 77.1984 29.002C77.1146 29.002 77.0728 29.0715 77.0309 29.1001C76.8216 29.2675 76.5847 29.3655 76.3335 29.3931C75.8311 29.4493 75.3287 29.4207 74.8406 29.2399L74.1564 29.003C73.6793 28.8468 73.1771 28.781 72.6758 28.809C71.9641 28.8652 71.2942 29.1021 70.6662 29.437C69.9964 29.7995 69.5226 30.3438 69.2979 31.0841C69.1723 31.5171 69.158 31.9623 69.2142 32.4095C69.3541 33.4286 69.8841 34.1403 70.8327 34.5171C70.8888 34.5314 70.9307 34.558 70.9859 34.5733C71.1115 34.6427 71.1258 34.7132 71.0134 34.8102L70.6642 35.0471L69.8269 35.5638C69.6175 35.6894 69.59 35.7884 69.6594 36.01C69.7425 36.2707 69.8971 36.5028 70.1056 36.6799C70.2971 36.8442 70.5141 36.9762 70.7479 37.0709C70.9011 37.1404 70.9011 37.1731 70.7622 37.2956L69.9658 37.8674C69.7003 38.0717 69.4348 38.2759 69.2122 38.5373C69.0573 38.7029 68.9458 38.9042 68.8874 39.1233C68.8289 39.3424 68.8255 39.5725 68.8772 39.7933C68.981 40.2777 69.2347 40.7171 69.6022 41.0492C69.9651 41.3853 70.4064 41.625 70.8858 41.7467C71.6669 41.9713 72.4767 41.9836 73.2722 41.8304C74.4158 41.6211 75.4165 41.1156 76.2028 40.2538C76.747 39.682 77.0677 39.0121 77.0963 38.2115C77.1267 37.7485 76.992 37.2898 76.716 36.9167C76.4401 36.5437 76.0407 36.2807 75.5891 36.1744L74.8355 36.0345L72.5329 35.8303C72.2817 35.816 72.0305 35.7741 71.8211 35.6485C71.5556 35.4811 71.4862 35.1604 71.6537 34.9511C71.7793 34.7979 71.9324 34.6999 72.1285 34.6856L72.5747 34.6448C73.4572 34.555 74.2857 34.1775 74.9325 33.5705C75.2779 33.2509 75.5248 32.8392 75.6442 32.384C75.8117 31.7836 75.8117 31.1586 75.6718 30.546C75.6309 30.3928 75.6442 30.3785 75.8393 30.4061L75.8454 30.4122ZM72.4246 37.363C72.5083 37.3773 72.5921 37.363 72.6758 37.363C73.2619 37.3906 73.8624 37.4324 74.4342 37.5876C74.6209 37.6428 74.8029 37.7128 74.9784 37.797C75.537 38.1033 75.7463 38.6343 75.6759 39.2061C75.5921 39.8341 75.2429 40.2803 74.6987 40.5744C74.3362 40.7786 73.9308 40.8675 73.5121 40.9094C73.3589 40.9236 73.219 40.9094 73.0659 40.9094C72.5778 40.9236 72.103 40.8685 71.6424 40.6725C71.3218 40.5469 71.0563 40.3661 70.8194 40.1139C70.3313 39.6258 70.1046 38.7323 70.8337 38.0063C71.2799 37.5978 71.7833 37.3089 72.4246 37.363ZM74.0155 33.0089C73.7225 33.7482 73.0802 33.9718 72.4389 33.8738C71.8528 33.7901 71.4198 33.4694 71.1421 32.9385C70.7796 32.2267 70.6826 31.4885 70.8909 30.7196C71.0441 30.1477 71.3933 29.7148 72.007 29.6167C72.7881 29.4768 73.5387 29.7566 73.9328 30.5378C74.137 30.9156 74.2259 31.3751 74.2259 32.0307C74.2116 32.2962 74.1564 32.6587 74.0165 33.0079L74.0155 33.0089ZM56.4338 32.0593C56.3082 31.3057 56.0294 30.6215 55.5128 30.0497C54.7449 29.1981 53.7687 28.8243 52.6659 28.8213C51.7029 28.807 50.7972 29.0868 49.9864 29.5892C49.1894 30.0661 48.6051 30.8301 48.3537 31.7243C48.1168 32.5341 48.129 33.3581 48.3128 34.1801C48.8009 36.3858 50.5041 37.3334 52.5403 37.1945C53.1407 37.1537 53.7125 36.9576 54.2558 36.6921C55.0655 36.3143 55.6516 35.7149 56.056 34.9194C56.3766 34.2639 56.5155 33.5654 56.5022 32.77L56.4328 32.0583L56.4338 32.0593ZM54.4528 35.1574C54.353 35.4713 54.1639 35.7494 53.9086 35.9576C53.6532 36.1658 53.3427 36.2951 53.0151 36.3296C52.4024 36.4133 51.8285 36.2602 51.3129 35.8967C50.9406 35.6228 50.6392 35.264 50.4337 34.85C49.8619 33.6778 49.7638 32.4504 50.0559 31.1944C50.1499 30.8057 50.3533 30.452 50.642 30.1753C51.1587 29.7005 51.7581 29.5892 52.429 29.7291C53.0723 29.869 53.5594 30.2172 53.9607 30.7481C54.362 31.2791 54.5468 31.8918 54.6581 32.5351C54.7142 32.8557 54.7142 33.1907 54.7275 33.4C54.7275 34.0699 54.6714 34.6254 54.462 35.1584L54.4528 35.1574ZM86.9246 32.1716C86.8225 31.3618 86.5202 30.6225 85.9474 30.0089C85.1938 29.1858 84.2166 28.8366 83.1291 28.8223C82.1937 28.808 81.3288 29.0735 80.5334 29.534C79.6399 30.065 79.0262 30.8176 78.7893 31.8367C78.5064 32.9485 78.625 34.1244 79.1242 35.1574C79.5837 36.1346 80.3659 36.7626 81.3993 37.0413C82.5429 37.3477 83.6325 37.2088 84.6924 36.6921C85.6135 36.2459 86.269 35.5485 86.6458 34.5988C86.8705 34.0403 86.9522 33.4409 86.9664 32.7424C86.9807 32.6168 86.9522 32.3932 86.9256 32.1706L86.9246 32.1716ZM84.9987 34.9766C84.7741 35.7302 84.3013 36.2183 83.5059 36.3306C82.9197 36.4144 82.3622 36.2745 81.8588 35.9395C81.4258 35.6465 81.1195 35.2554 80.8959 34.7959C80.6447 34.3078 80.5048 33.7911 80.4496 33.2611C80.3659 32.6056 80.3659 31.9643 80.5191 31.3077C80.5483 31.1783 80.5903 31.052 80.6447 30.9309C81.0358 29.9537 81.9006 29.5075 82.9197 29.7311C83.6039 29.8843 84.1195 30.2621 84.5106 30.8339C84.8885 31.3925 85.0692 32.0062 85.154 32.6719C85.1948 32.9374 85.2101 33.2162 85.1948 33.4531C85.1948 33.9974 85.1539 34.4998 84.9906 34.9879L84.9987 34.9766Z" fill="#47474A"/>
</svg>
