<svg width="562" height="501" viewBox="0 0 562 501" fill="none" xmlns="http://www.w3.org/2000/svg">
<g clip-path="url(#clip0_22_2)">
<path d="M230.8 249.888C230.8 222.188 253.3 199.688 281 199.688C308.7 199.688 331.2 222.188 331.2 249.888C331.2 277.588 308.7 300.088 281 300.088C253.3 300.088 230.8 277.588 230.8 249.888ZM561.8 249.888C561.8 284.388 521.1 319.288 455.5 340.988C452.1 342.088 448.6 343.188 445 344.288C446.3 349.388 447.4 354.388 448.4 359.288C454.5 390.288 455.5 419.088 451.2 442.488C446.6 467.388 436.2 485.088 421.2 493.788C413.7 498.188 404.8 500.388 394.9 500.388C367.7 500.388 333.2 483.988 297.2 452.988C292.1 448.588 287.1 443.988 282 439.088C278.1 442.888 274.2 446.488 270.3 449.888C246.5 470.688 222 485.888 199.6 493.788C187.9 497.988 176.9 500.088 167.1 500.088C156.9 500.088 147.9 497.888 140.3 493.488C111.6 476.888 101.6 429.088 113.7 365.588C114.9 359.088 116.4 352.388 118.1 345.588C112.8 344.088 107.7 342.488 102.8 340.788C72.9 330.588 47.5 316.988 29.4 301.488C10.2 285.088 0 267.188 0 249.888C0 216.688 36.4 184.188 97.5 162.988C104.2 160.688 111.2 158.488 118.4 156.388C116.8 150.088 115.4 143.888 114.2 137.788C108.3 107.588 107.2 79.8876 111 57.5876C115.2 33.2876 125.1 15.9876 139.8 7.48756C169.6 -9.81245 220.3 7.98756 271.9 53.8876C275 56.6876 278.1 59.5876 281.3 62.5876C286 58.0876 290.7 53.7876 295.3 49.6876C318.5 29.4876 342 14.6876 363.2 6.88756C386.3 -1.61244 406.3 -1.61244 420.9 6.78756C450.8 23.9876 460.7 76.7876 446.7 144.388C445.9 148.488 444.9 152.588 443.9 156.788C450.1 158.588 456.1 160.488 461.9 162.488C491 172.488 515.5 185.488 532.9 199.888C551.8 215.688 561.8 232.988 561.8 249.888ZM298.1 79.6876C314.1 96.8876 330.1 116.888 345.5 138.888C372 141.388 397.3 145.388 420.7 150.788C421.6 146.988 422.5 143.288 423.2 139.588C436.3 75.8876 425 36.8876 408.9 27.5876C400.7 22.8876 387.4 23.4876 371.4 29.3876C352.9 36.1876 332 49.4876 311 67.7876C306.7 71.4876 302.4 75.4876 298.1 79.6876ZM147.8 328.288C163.8 331.788 181.1 334.588 199.5 336.588C193.5 327.188 187.6 317.588 181.9 307.788C176.3 298.188 171 288.488 166 278.788C158.9 295.588 152.7 312.288 147.8 328.288ZM181.9 193.188C187.5 183.588 193.2 174.088 199.1 164.888C181.3 167.088 164.2 170.088 148.1 173.588C153 189.388 159 205.688 166 222.288C171 212.588 176.3 202.888 181.9 193.188ZM202.7 295.788C211.4 310.788 220.6 325.388 230.2 339.288C246.5 340.288 263.5 340.888 281 340.888C298.6 340.888 315.8 340.288 332.4 339.088C341.5 325.388 350.5 310.888 359.4 295.588C368.2 280.388 376.3 265.088 383.6 250.088C376.3 235.388 368.3 220.388 359.4 205.088C350.7 189.988 341.6 175.588 332.3 161.788C315.6 160.488 298.4 159.888 281 159.888C263.8 159.888 246.6 160.588 229.8 161.888C220.4 175.688 211.2 190.188 202.6 205.188C194 220.088 186 235.288 178.7 250.488C186 265.588 194 280.788 202.7 295.788ZM363 336.188C381.5 333.988 399.1 330.988 415.4 327.288C410.4 311.588 404.1 294.988 396.5 277.788C391.4 287.688 385.9 297.688 380.2 307.588C374.5 317.388 368.8 326.988 363 336.188ZM414.2 173.888C398 170.188 380.8 167.188 362.9 164.888C368.7 173.988 374.4 183.388 380 192.988C385.7 202.888 391.1 212.688 396.2 222.288C403.3 205.688 409.4 189.388 414.2 173.888ZM247.9 136.688C258.8 136.188 269.8 135.888 280.9 135.888C292.2 135.888 303.3 136.188 314.4 136.688C303.5 122.188 292.4 108.788 281.3 96.7876C270 108.888 258.8 122.288 247.9 136.688ZM137.8 133.188C138.9 138.888 140.2 144.588 141.7 150.488C165 145.188 190.3 141.288 216.8 138.788C232.2 117.088 248.3 97.1876 264.6 79.5876C261.8 76.8876 259 74.2876 256.2 71.8876C207.4 28.6876 168 18.9876 151.9 28.2876C143.7 32.9876 137.6 44.8876 134.7 61.6876C131.4 81.0876 132.4 105.888 137.8 133.188ZM152.2 250.588C141.1 226.388 131.8 202.488 124.8 179.588C118.1 181.488 111.7 183.488 105.5 185.688C49.3 205.288 24.1 232.088 24.1 249.988C24.1 268.588 51.2 297.888 110.6 318.188C115.1 319.688 119.7 321.188 124.5 322.588C131.6 299.288 140.9 275.088 152.2 250.588ZM265.2 421.988C248.7 404.388 232.5 384.288 217 362.388C189.6 360.188 164.2 356.488 141.4 351.388C139.8 357.788 138.5 363.988 137.3 369.988C126.2 428.488 136.9 463.688 152.3 472.588C168.4 481.888 207.3 473.088 254.6 431.688C258 428.688 261.6 425.388 265.2 421.988ZM314.9 364.088C303.8 364.588 292.4 364.888 281 364.888C269.8 364.888 258.9 364.688 248.2 364.288C259.3 378.888 270.6 392.388 282 404.688C292.9 392.588 304 379.088 314.9 364.088ZM425 363.988C424.1 359.488 423.1 354.988 421.9 350.288C398.7 355.688 373.1 359.588 345.9 361.988C330.4 384.488 314.5 404.588 298.8 421.788C303.5 426.388 308.3 430.688 312.9 434.688C358 473.488 393.8 481.888 409.3 472.888C425.4 463.688 437.2 425.588 425 363.988ZM537.9 249.888C537.9 240.388 530.7 229.188 517.6 218.288C502.5 205.688 480.5 194.188 454.2 185.088C448.8 183.288 443.2 181.488 437.5 179.788C430.6 202.088 421.4 225.788 410.1 249.988C421.9 274.888 431.5 298.788 438.5 321.088C441.7 320.088 444.9 319.088 448 318.088C509.7 297.688 537.9 268.388 537.9 249.888Z" fill="black"/>
</g>
<defs>
<clipPath id="clip0_22_2">
<rect width="561.8" height="499.888" fill="white" transform="translate(0 0.5)"/>
</clipPath>
</defs>
</svg>
