<svg width="2500" height="1046" viewBox="0 0 2500 1046" fill="none" xmlns="http://www.w3.org/2000/svg">
<g clip-path="url(#clip0_23_104)">
<path d="M175.693 408.176C175.693 381.096 197.915 370.676 234.727 370.676C287.5 370.676 354.165 386.652 406.943 415.124V251.926C349.307 229.011 292.363 219.982 234.727 219.982C93.75 219.982 0 293.596 0 416.516C0 608.176 263.887 577.624 263.887 660.266C263.887 692.204 236.113 702.624 197.222 702.624C139.585 702.624 65.9717 679.011 7.63672 647.067V812.346C72.2217 840.124 137.5 851.926 197.222 851.926C341.665 851.926 440.972 780.402 440.972 656.096C440.278 449.152 175.693 485.954 175.693 408.176ZM645.137 81.0957L475.693 117.204L475 673.454C475 776.237 552.085 851.926 654.863 851.926C711.807 851.926 753.472 841.511 776.387 829.011V688.039C754.17 697.067 644.443 729.011 644.443 626.232V379.704H776.387V231.789H644.443L645.137 81.0957ZM992.363 283.176L981.25 231.789H831.25V839.426H1004.86V427.624C1045.83 374.152 1115.28 383.874 1136.81 391.511V231.789C1114.58 223.454 1033.33 208.176 992.363 283.176ZM1179.17 231.789H1353.47V839.426H1179.17V231.789ZM1179.17 179.011L1353.47 141.511V0.539062L1179.17 37.3457V179.011ZM1715.97 219.982C1647.92 219.982 1604.17 251.926 1579.86 274.152L1570.83 231.096H1418.06V1040.81L1591.66 1004.01L1592.36 807.482C1617.36 825.539 1654.17 851.232 1715.28 851.232C1839.58 851.232 1952.78 751.232 1952.78 531.096C1952.08 329.704 1837.5 219.982 1715.97 219.982ZM1674.31 698.454C1633.34 698.454 1609.02 683.874 1592.36 665.817L1591.66 408.176C1609.72 388.039 1634.72 374.152 1674.31 374.152C1737.5 374.152 1781.25 444.982 1781.25 535.954C1781.25 629.011 1738.19 698.454 1674.31 698.454ZM2500 538.039C2500 360.261 2413.89 219.982 2249.31 219.982C2084.02 219.982 1984.02 360.266 1984.02 536.652C1984.02 745.676 2102.08 851.232 2271.52 851.232C2354.17 851.232 2416.67 832.482 2463.89 806.096V667.204C2416.67 690.817 2362.5 705.402 2293.75 705.402C2226.39 705.402 2166.67 681.789 2159.03 599.846H2498.61C2498.61 590.812 2500 554.704 2500 538.039ZM2156.94 472.067C2156.94 393.596 2204.86 360.954 2248.61 360.954C2290.97 360.954 2336.11 393.596 2336.11 472.067H2156.94Z" fill="#6772E5"/>
</g>
<defs>
<clipPath id="clip0_23_104">
<rect width="2500" height="1045" fill="white" transform="translate(0 0.5)"/>
</clipPath>
</defs>
</svg>
