<svg width="2501" height="1504" viewBox="0 0 2501 1504" fill="none" xmlns="http://www.w3.org/2000/svg">
<g clip-path="url(#clip0_23_11)">
<path d="M1250.72 2.00647C917.395 2.00647 709.055 168.676 625.725 502.006C750.725 335.337 896.555 272.837 1063.22 314.506C1158.31 338.276 1226.28 407.27 1301.52 483.628C1424.07 608.032 1565.91 752.006 1875.72 752.006C2209.05 752.006 2417.39 585.337 2500.72 252.006C2375.72 418.676 2229.89 481.176 2063.22 439.506C1968.14 415.737 1900.17 346.743 1824.93 270.385C1702.37 145.981 1560.54 2.00647 1250.72 2.00647ZM625.725 752.006C292.395 752.006 84.0547 918.676 0.724609 1252.01C125.725 1085.34 271.555 1022.84 438.225 1064.51C533.312 1088.28 601.281 1157.27 676.516 1233.63C799.074 1358.03 940.91 1502.01 1250.72 1502.01C1584.05 1502.01 1792.39 1335.34 1875.72 1002.01C1750.72 1168.68 1604.89 1231.18 1438.22 1189.51C1343.14 1165.74 1275.17 1096.74 1199.93 1020.39C1077.38 895.981 935.539 752.006 625.725 752.006Z" fill="url(#paint0_linear_23_11)"/>
</g>
<defs>
<linearGradient id="paint0_linear_23_11" x1="-17778.5" y1="73730" x2="-10375.7" y2="156799" gradientUnits="userSpaceOnUse">
<stop stop-color="#2298BD"/>
<stop offset="1" stop-color="#0ED7B5"/>
</linearGradient>
<clipPath id="clip0_23_11">
<rect width="2500" height="1504" fill="white" transform="translate(0.724609 0.00646973)"/>
</clipPath>
</defs>
</svg>
