<svg width="1000" height="1001" viewBox="0 0 1000 1001" fill="none" xmlns="http://www.w3.org/2000/svg">
<g clip-path="url(#clip0_13_2)">
<path d="M195.877 0.75C88.16 0.75 0 88.908 0 196.627V804.468C0 912.185 88.158 1000.31 195.877 1000.31H803.718C911.436 1000.31 999.563 912.186 999.563 804.468V196.627C999.563 88.91 911.436 0.75 803.718 0.75H195.877ZM245.143 165.698C296.791 165.698 328.604 199.604 329.586 244.173C329.586 287.758 296.789 322.617 244.144 322.617H243.175C192.51 322.617 159.763 287.76 159.763 244.173C159.763 199.605 193.501 165.698 245.142 165.698H245.143ZM690.223 374.008C789.552 374.008 864.013 438.93 864.013 578.444V838.893H713.06V595.906C713.06 534.846 691.213 493.188 636.584 493.188C594.88 493.188 570.022 521.266 559.108 548.39C555.121 558.094 554.141 571.647 554.141 585.222V838.893H403.188C403.188 838.893 405.169 427.28 403.188 384.66H554.172V448.984C574.232 418.034 610.114 374.007 690.223 374.007V374.008ZM168.667 384.693H319.62V838.895H168.667V384.693Z" fill="black"/>
</g>
<defs>
<clipPath id="clip0_13_2">
<rect width="1000" height="1000" fill="white" transform="translate(0 0.5)"/>
</clipPath>
</defs>
</svg>
