<svg width="513" height="513" viewBox="0 0 513 513" fill="none" xmlns="http://www.w3.org/2000/svg">
<g clip-path="url(#clip0_19_2)">
<path d="M80.9248 0.949585H432.975C477.105 0.949585 512.945 36.7896 512.945 80.9196V432.97C512.945 477.1 477.105 512.94 432.975 512.94H80.9248C36.7948 512.94 0.954834 477.1 0.954834 432.97V80.9196C0.954834 36.7896 36.7948 0.949585 80.9248 0.949585Z" fill="#000B1D"/>
<path fill-rule="evenodd" clip-rule="evenodd" d="M250.915 276.1C233.915 288.39 212.515 294.43 186.715 294.43H175.865L172.585 294.23V363.66C172.585 365.09 172.075 366.42 170.945 367.45C169.925 368.27 168.585 368.78 167.155 368.68H132.855C130.295 368.88 128.045 366.84 127.835 364.28C127.835 364.08 127.835 363.87 127.835 363.67V154.35C127.835 153.12 128.245 151.89 128.965 150.87C129.885 149.85 131.115 149.33 132.445 149.33C146.265 148.92 165.825 148.72 190.815 148.72C219.695 148.72 241.505 155.38 255.635 169.3C269.665 182.51 277.345 200.94 276.935 220.19C277.025 244.56 268.325 263.4 250.915 276.1ZM221.525 193.56C214.565 187.01 204.525 183.63 191.005 183.63C182.095 183.63 176.055 183.73 172.675 184.04V258.79C175.955 258.99 181.275 259.2 188.755 259.2C200.015 259.71 211.185 256.64 220.495 250.29C228.175 244.45 232.375 234.93 232.375 220.7C232.895 210.56 228.995 200.63 221.525 193.56Z" fill="white"/>
<path d="M373.995 172.67C370.305 178.81 368.675 185.98 369.185 193.15V205.34H393.655C396.215 205.14 398.465 207.18 398.675 209.74C398.675 209.94 398.675 210.15 398.675 210.35V234.31C398.675 235.64 398.265 236.87 397.445 237.89C396.525 238.81 395.395 239.43 394.065 239.63H393.865H369.185V363.23C369.385 365.99 367.345 368.35 364.575 368.55C364.375 368.55 364.065 368.55 363.855 368.55H329.555C326.795 368.75 324.435 366.71 324.235 363.94C324.235 363.74 324.235 363.43 324.235 363.22V239.52H308.155C306.725 239.52 305.395 238.91 304.465 237.78C303.745 236.76 303.335 235.42 303.445 234.2V210.24C303.445 209.01 303.855 207.78 304.575 206.76C305.495 205.74 306.725 205.22 308.155 205.22H324.235V196.31C323.725 183.31 326.385 170.3 332.015 158.52C336.315 149.3 343.175 141.62 351.885 136.3C360.995 131.18 371.345 128.62 381.785 128.82C388.645 128.51 395.505 129.54 401.955 131.89C403.085 132.3 404.105 133.12 404.715 134.14C405.325 135.16 405.635 136.39 405.635 137.62V163.83C405.735 165.37 405.225 166.8 404.095 167.82C402.765 168.84 401.025 169.05 399.585 168.23C395.895 166.8 392.005 166.08 388.015 166.18C382.395 166.02 377.275 168.37 373.995 172.67Z" fill="white"/>
</g>
<defs>
<clipPath id="clip0_19_2">
<rect width="512" height="512" fill="white" transform="translate(0.954834 0.949585)"/>
</clipPath>
</defs>
</svg>
